<svg xmlns="http://www.w3.org/2000/svg" xmlns:xlink="http://www.w3.org/1999/xlink" width="157" zoomAndPan="magnify" viewBox="0 0 117.75 37.5" height="50" preserveAspectRatio="xMidYMid meet" version="1.2"><defs><clipPath id="d00c2f0c40"><path d="M 11 0 L 92 0 L 92 37.007812 L 11 37.007812 Z M 11 0 "/></clipPath><clipPath id="4297187010"><path d="M 0.546875 3 L 42 3 L 42 31 L 0.546875 31 Z M 0.546875 3 "/></clipPath><clipPath id="6cacf2b895"><rect x="0" width="81" y="0" height="38"/></clipPath><clipPath id="3f3adee839"><path d="M 85.320312 30 L 91 30 L 91 32.945312 L 85.320312 32.945312 Z M 85.320312 30 "/></clipPath><clipPath id="568a70f3c5"><path d="M 85.320312 14.441406 L 107.527344 14.441406 L 107.527344 32.945312 L 85.320312 32.945312 Z M 85.320312 14.441406 "/></clipPath></defs><g id="f8c6235a17"><g clip-rule="nonzero" clip-path="url(#d00c2f0c40)"><g transform="matrix(1,0,0,1,11,-0.000000000000001478)"><g clip-path="url(#6cacf2b895)"><g clip-rule="nonzero" clip-path="url(#4297187010)"><g style="fill:#000000;fill-opacity:1;"><g transform="translate(3.985612, 26.010155)"><path style="stroke:none" d="M 36.453125 -20.359375 C 36.578125 -20.265625 36.6875 -20.148438 36.78125 -20.015625 C 36.882812 -19.890625 36.953125 -19.738281 36.984375 -19.5625 C 37.015625 -19.363281 36.941406 -19.210938 36.765625 -19.109375 C 36.660156 -19.054688 36.554688 -19.046875 36.453125 -19.078125 C 36.359375 -19.117188 36.289062 -19.195312 36.25 -19.3125 C 36.132812 -19.625 35.960938 -19.867188 35.734375 -20.046875 C 35.515625 -20.222656 35.269531 -20.378906 35 -20.515625 C 34.40625 -20.828125 33.789062 -21.082031 33.15625 -21.28125 C 32.53125 -21.476562 31.894531 -21.648438 31.25 -21.796875 C 30.1875 -22.015625 28.765625 -22.160156 26.984375 -22.234375 C 25.210938 -22.304688 23.238281 -22.28125 21.0625 -22.15625 C 18.882812 -22.03125 16.65625 -21.796875 14.375 -21.453125 C 12.09375 -21.109375 9.90625 -20.632812 7.8125 -20.03125 C 5.726562 -19.425781 3.894531 -18.671875 2.3125 -17.765625 C 0.738281 -16.867188 -0.4375 -15.8125 -1.21875 -14.59375 C -1.863281 -13.53125 -1.992188 -12.40625 -1.609375 -11.21875 C -1.316406 -10.40625 -0.910156 -9.671875 -0.390625 -9.015625 C 0.398438 -8.015625 1.269531 -7.101562 2.21875 -6.28125 C 3.03125 -5.550781 3.84375 -4.816406 4.65625 -4.078125 C 5.445312 -3.367188 6.242188 -2.65625 7.046875 -1.9375 C 7.941406 -1.113281 8.816406 -0.285156 9.671875 0.546875 C 9.753906 0.628906 9.835938 0.707031 9.921875 0.78125 C 10.390625 1.21875 10.800781 1.695312 11.15625 2.21875 C 11.507812 2.820312 11.570312 3.289062 11.34375 3.625 C 11.125 3.957031 10.703125 4.179688 10.078125 4.296875 C 9.453125 4.410156 8.722656 4.445312 7.890625 4.40625 C 7.066406 4.363281 6.234375 4.257812 5.390625 4.09375 C 4.554688 3.9375 3.8125 3.742188 3.15625 3.515625 C 2.507812 3.285156 2.050781 3.050781 1.78125 2.8125 C 1.25 2.3125 1.210938 1.785156 1.671875 1.234375 C 2.179688 0.660156 2.796875 0.25 3.515625 0 C 4.566406 -0.40625 5.628906 -0.441406 6.703125 -0.109375 C 6.910156 -0.0351562 7.109375 0.0625 7.296875 0.1875 C 7.316406 0.195312 7.332031 0.207031 7.34375 0.21875 C 7.394531 0.25 7.429688 0.289062 7.453125 0.34375 C 7.472656 0.40625 7.460938 0.46875 7.421875 0.53125 C 7.335938 0.632812 7.234375 0.664062 7.109375 0.625 C 6.992188 0.582031 6.882812 0.53125 6.78125 0.46875 C 6.039062 0.101562 5.273438 0.0234375 4.484375 0.234375 C 3.703125 0.453125 3.039062 0.882812 2.5 1.53125 C 2.257812 1.832031 2.242188 2.097656 2.453125 2.328125 C 2.671875 2.566406 3 2.765625 3.4375 2.921875 C 3.875 3.085938 4.3125 3.21875 4.75 3.3125 C 5.1875 3.40625 5.515625 3.46875 5.734375 3.5 C 5.773438 3.5 5.804688 3.503906 5.828125 3.515625 C 5.867188 3.515625 5.921875 3.519531 5.984375 3.53125 C 6.253906 3.59375 6.628906 3.65625 7.109375 3.71875 C 7.597656 3.789062 8.097656 3.835938 8.609375 3.859375 C 9.117188 3.890625 9.554688 3.859375 9.921875 3.765625 C 10.296875 3.671875 10.503906 3.488281 10.546875 3.21875 C 10.597656 2.945312 10.394531 2.550781 9.9375 2.03125 C 9.445312 1.46875 8.929688 0.921875 8.390625 0.390625 C 7.046875 -0.910156 5.664062 -2.171875 4.25 -3.390625 C 3.75 -3.847656 3.242188 -4.304688 2.734375 -4.765625 C 1.878906 -5.523438 1.046875 -6.304688 0.234375 -7.109375 C -0.523438 -7.835938 -1.191406 -8.644531 -1.765625 -9.53125 C -2.179688 -10.164062 -2.472656 -10.851562 -2.640625 -11.59375 C -2.890625 -12.800781 -2.664062 -13.921875 -1.96875 -14.953125 C -1.207031 -16.097656 -0.101562 -17.113281 1.34375 -18 C 2.789062 -18.882812 4.46875 -19.640625 6.375 -20.265625 C 8.289062 -20.890625 10.328125 -21.394531 12.484375 -21.78125 C 14.648438 -22.164062 16.832031 -22.4375 19.03125 -22.59375 C 21.238281 -22.757812 23.351562 -22.816406 25.375 -22.765625 C 27.394531 -22.722656 29.222656 -22.570312 30.859375 -22.3125 C 32.503906 -22.0625 33.851562 -21.710938 34.90625 -21.265625 C 35.457031 -21.046875 35.972656 -20.742188 36.453125 -20.359375 Z M 36.453125 -20.359375 "/></g></g></g><g style="fill:#000000;fill-opacity:1;"><g transform="translate(14.388159, 26.010155)"><path style="stroke:none" d="M 7.375 -3.53125 C 7.539062 -3.632812 7.671875 -3.660156 7.765625 -3.609375 C 7.859375 -3.554688 7.820312 -3.410156 7.65625 -3.171875 C 7.445312 -2.898438 7.078125 -2.601562 6.546875 -2.28125 C 6.015625 -1.96875 5.539062 -1.832031 5.125 -1.875 C 4.71875 -1.914062 4.597656 -2.21875 4.765625 -2.78125 C 4.941406 -3.34375 5.035156 -3.65625 5.046875 -3.71875 C 5.066406 -3.789062 5.054688 -3.832031 5.015625 -3.84375 C 4.972656 -3.851562 4.878906 -3.804688 4.734375 -3.703125 C 4.304688 -3.410156 3.894531 -3.101562 3.5 -2.78125 C 3.320312 -2.65625 3.148438 -2.519531 2.984375 -2.375 C 2.878906 -2.28125 2.769531 -2.1875 2.65625 -2.09375 C 2.65625 -2.09375 2.648438 -2.085938 2.640625 -2.078125 C 2.515625 -1.953125 2.363281 -1.867188 2.1875 -1.828125 C 2.101562 -1.804688 2.015625 -1.796875 1.921875 -1.796875 C 1.835938 -1.804688 1.765625 -1.84375 1.703125 -1.90625 C 1.640625 -1.976562 1.613281 -2.050781 1.625 -2.125 C 1.644531 -2.207031 1.703125 -2.320312 1.796875 -2.46875 C 1.898438 -2.625 2.007812 -2.796875 2.125 -2.984375 C 2.25 -3.171875 2.316406 -3.285156 2.328125 -3.328125 C 2.347656 -3.367188 2.34375 -3.410156 2.3125 -3.453125 C 2.28125 -3.492188 2.242188 -3.503906 2.203125 -3.484375 C 2.160156 -3.472656 2.007812 -3.375 1.75 -3.1875 C 1.5 -3.007812 1.148438 -2.75 0.703125 -2.40625 C 0.492188 -2.257812 0.289062 -2.101562 0.09375 -1.9375 C 0.0390625 -1.882812 -0.015625 -1.835938 -0.078125 -1.796875 C -0.222656 -1.671875 -0.382812 -1.601562 -0.5625 -1.59375 C -0.6875 -1.582031 -0.78125 -1.609375 -0.84375 -1.671875 C -0.90625 -1.742188 -0.914062 -1.835938 -0.875 -1.953125 C -0.84375 -2.035156 -0.804688 -2.113281 -0.765625 -2.1875 C -0.742188 -2.21875 -0.726562 -2.25 -0.71875 -2.28125 C -0.34375 -3.03125 0.0234375 -3.785156 0.390625 -4.546875 C 0.398438 -4.566406 0.410156 -4.59375 0.421875 -4.625 C 0.460938 -4.707031 0.503906 -4.785156 0.546875 -4.859375 C 0.660156 -4.972656 0.796875 -5.007812 0.953125 -4.96875 C 1.128906 -4.914062 1.195312 -4.816406 1.15625 -4.671875 C 1.0625 -4.429688 0.976562 -4.195312 0.90625 -3.96875 C 0.863281 -3.863281 0.820312 -3.757812 0.78125 -3.65625 C 0.707031 -3.46875 0.679688 -3.347656 0.703125 -3.296875 C 0.734375 -3.242188 0.851562 -3.28125 1.0625 -3.40625 C 1.195312 -3.5 1.332031 -3.59375 1.46875 -3.6875 C 1.632812 -3.800781 1.796875 -3.90625 1.953125 -4 C 2.191406 -4.144531 2.4375 -4.269531 2.6875 -4.375 C 2.8125 -4.425781 2.9375 -4.460938 3.0625 -4.484375 C 3.195312 -4.515625 3.320312 -4.488281 3.4375 -4.40625 C 3.519531 -4.332031 3.550781 -4.25 3.53125 -4.15625 C 3.519531 -4.070312 3.5 -3.988281 3.46875 -3.90625 C 3.394531 -3.75 3.363281 -3.648438 3.375 -3.609375 C 3.394531 -3.566406 3.429688 -3.554688 3.484375 -3.578125 C 3.546875 -3.609375 3.65625 -3.671875 3.8125 -3.765625 C 3.96875 -3.859375 4.132812 -3.960938 4.3125 -4.078125 C 4.539062 -4.222656 4.78125 -4.363281 5.03125 -4.5 C 5.238281 -4.632812 5.457031 -4.71875 5.6875 -4.75 C 6.019531 -4.769531 6.15625 -4.632812 6.09375 -4.34375 C 6.03125 -4.0625 5.914062 -3.722656 5.75 -3.328125 C 5.582031 -2.941406 5.566406 -2.703125 5.703125 -2.609375 C 5.835938 -2.523438 6.132812 -2.644531 6.59375 -2.96875 C 7.050781 -3.300781 7.3125 -3.488281 7.375 -3.53125 Z M 7.375 -3.53125 "/></g></g><g style="fill:#000000;fill-opacity:1;"><g transform="translate(21.854845, 26.010155)"><path style="stroke:none" d="M 2.796875 -2.96875 C 2.546875 -2.675781 2.25 -2.40625 1.90625 -2.15625 C 1.5625 -1.90625 1.171875 -1.734375 0.734375 -1.640625 C 0.304688 -1.554688 -0.0234375 -1.585938 -0.265625 -1.734375 C -0.503906 -1.890625 -0.550781 -2.226562 -0.40625 -2.75 C -0.21875 -3.28125 0.0390625 -3.789062 0.375 -4.28125 C 0.445312 -4.382812 0.554688 -4.457031 0.703125 -4.5 C 0.804688 -4.519531 0.894531 -4.5 0.96875 -4.4375 C 1.050781 -4.382812 1.082031 -4.3125 1.0625 -4.21875 C 0.988281 -4.050781 0.910156 -3.878906 0.828125 -3.703125 C 0.742188 -3.535156 0.6875 -3.425781 0.65625 -3.375 C 0.488281 -3.070312 0.375 -2.757812 0.3125 -2.4375 C 0.3125 -2.25 0.5625 -2.234375 1.0625 -2.390625 C 1.570312 -2.554688 2.0625 -2.859375 2.53125 -3.296875 C 3.007812 -3.742188 3.238281 -3.875 3.21875 -3.6875 C 3.195312 -3.507812 3.054688 -3.269531 2.796875 -2.96875 Z M 1.578125 -5.328125 C 1.546875 -5.316406 1.492188 -5.296875 1.421875 -5.265625 C 1.347656 -5.242188 1.269531 -5.222656 1.1875 -5.203125 C 1.113281 -5.191406 1.050781 -5.207031 1 -5.25 C 0.957031 -5.289062 0.957031 -5.363281 1 -5.46875 C 1.070312 -5.664062 1.148438 -5.835938 1.234375 -5.984375 C 1.316406 -6.140625 1.421875 -6.304688 1.546875 -6.484375 C 1.628906 -6.566406 1.71875 -6.609375 1.8125 -6.609375 C 1.914062 -6.617188 2 -6.59375 2.0625 -6.53125 C 2.132812 -6.476562 2.15625 -6.398438 2.125 -6.296875 C 2.019531 -5.921875 1.835938 -5.597656 1.578125 -5.328125 Z M 1.578125 -5.328125 "/></g></g><g style="fill:#000000;fill-opacity:1;"><g transform="translate(24.607215, 26.010155)"><path style="stroke:none" d="M 3.421875 -3.359375 C 3.578125 -3.515625 3.703125 -3.601562 3.796875 -3.625 C 3.898438 -3.644531 3.96875 -3.628906 4 -3.578125 C 4.03125 -3.523438 4.007812 -3.453125 3.9375 -3.359375 C 3.53125 -2.867188 3.066406 -2.441406 2.546875 -2.078125 C 2.035156 -1.710938 1.507812 -1.5 0.96875 -1.4375 C 0.425781 -1.382812 0.0976562 -1.679688 -0.015625 -2.328125 C -0.0976562 -2.972656 0.289062 -4.285156 1.15625 -6.265625 C 2.019531 -8.253906 2.707031 -9.878906 3.21875 -11.140625 C 3.257812 -11.253906 3.320312 -11.351562 3.40625 -11.4375 C 3.519531 -11.550781 3.648438 -11.578125 3.796875 -11.515625 C 3.847656 -11.492188 3.898438 -11.457031 3.953125 -11.40625 C 4.003906 -11.351562 4.023438 -11.257812 4.015625 -11.125 C 1.785156 -5.851562 0.703125 -2.984375 0.765625 -2.515625 C 0.835938 -2.054688 1.132812 -1.941406 1.65625 -2.171875 C 2.1875 -2.410156 2.59375 -2.648438 2.875 -2.890625 C 3.164062 -3.128906 3.347656 -3.285156 3.421875 -3.359375 Z M 3.421875 -3.359375 "/></g></g><g style="fill:#000000;fill-opacity:1;"><g transform="translate(28.128843, 26.010155)"><path style="stroke:none" d="M 2.796875 -2.96875 C 2.546875 -2.675781 2.25 -2.40625 1.90625 -2.15625 C 1.5625 -1.90625 1.171875 -1.734375 0.734375 -1.640625 C 0.304688 -1.554688 -0.0234375 -1.585938 -0.265625 -1.734375 C -0.503906 -1.890625 -0.550781 -2.226562 -0.40625 -2.75 C -0.21875 -3.28125 0.0390625 -3.789062 0.375 -4.28125 C 0.445312 -4.382812 0.554688 -4.457031 0.703125 -4.5 C 0.804688 -4.519531 0.894531 -4.5 0.96875 -4.4375 C 1.050781 -4.382812 1.082031 -4.3125 1.0625 -4.21875 C 0.988281 -4.050781 0.910156 -3.878906 0.828125 -3.703125 C 0.742188 -3.535156 0.6875 -3.425781 0.65625 -3.375 C 0.488281 -3.070312 0.375 -2.757812 0.3125 -2.4375 C 0.3125 -2.25 0.5625 -2.234375 1.0625 -2.390625 C 1.570312 -2.554688 2.0625 -2.859375 2.53125 -3.296875 C 3.007812 -3.742188 3.238281 -3.875 3.21875 -3.6875 C 3.195312 -3.507812 3.054688 -3.269531 2.796875 -2.96875 Z M 1.578125 -5.328125 C 1.546875 -5.316406 1.492188 -5.296875 1.421875 -5.265625 C 1.347656 -5.242188 1.269531 -5.222656 1.1875 -5.203125 C 1.113281 -5.191406 1.050781 -5.207031 1 -5.25 C 0.957031 -5.289062 0.957031 -5.363281 1 -5.46875 C 1.070312 -5.664062 1.148438 -5.835938 1.234375 -5.984375 C 1.316406 -6.140625 1.421875 -6.304688 1.546875 -6.484375 C 1.628906 -6.566406 1.71875 -6.609375 1.8125 -6.609375 C 1.914062 -6.617188 2 -6.59375 2.0625 -6.53125 C 2.132812 -6.476562 2.15625 -6.398438 2.125 -6.296875 C 2.019531 -5.921875 1.835938 -5.597656 1.578125 -5.328125 Z M 1.578125 -5.328125 "/></g></g><g style="fill:#000000;fill-opacity:1;"><g transform="translate(30.881213, 26.010155)"><path style="stroke:none" d="M 5.59375 -3.515625 C 5.664062 -3.421875 5.566406 -3.25 5.296875 -3 C 5.035156 -2.75 4.753906 -2.539062 4.453125 -2.375 C 4.160156 -2.207031 3.820312 -2.039062 3.4375 -1.875 C 3.175781 -1.757812 2.898438 -1.71875 2.609375 -1.75 C 2.316406 -1.789062 2.171875 -1.96875 2.171875 -2.28125 C 2.171875 -2.601562 2.242188 -2.914062 2.390625 -3.21875 C 2.535156 -3.539062 2.566406 -3.707031 2.484375 -3.71875 C 2.398438 -3.726562 2.226562 -3.648438 1.96875 -3.484375 C 1.300781 -3.046875 0.675781 -2.539062 0.09375 -1.96875 C -0.0625 -1.78125 -0.257812 -1.675781 -0.5 -1.65625 C -0.613281 -1.65625 -0.703125 -1.691406 -0.765625 -1.765625 C -0.835938 -1.847656 -0.847656 -1.9375 -0.796875 -2.03125 C -0.390625 -2.789062 0.0234375 -3.546875 0.453125 -4.296875 C 0.546875 -4.453125 0.6875 -4.550781 0.875 -4.59375 C 0.957031 -4.601562 1.03125 -4.578125 1.09375 -4.515625 C 1.164062 -4.453125 1.203125 -4.378906 1.203125 -4.296875 C 1.191406 -4.222656 1.160156 -4.132812 1.109375 -4.03125 C 1.085938 -3.96875 1.066406 -3.90625 1.046875 -3.84375 C 1.023438 -3.789062 1.015625 -3.742188 1.015625 -3.703125 C 1.023438 -3.671875 1.054688 -3.660156 1.109375 -3.671875 C 1.179688 -3.710938 1.25 -3.753906 1.3125 -3.796875 C 1.5 -3.898438 1.671875 -4 1.828125 -4.09375 C 1.972656 -4.175781 2.125 -4.25 2.28125 -4.3125 C 2.445312 -4.382812 2.617188 -4.429688 2.796875 -4.453125 C 3.078125 -4.472656 3.273438 -4.410156 3.390625 -4.265625 C 3.515625 -4.117188 3.53125 -3.914062 3.4375 -3.65625 C 3.34375 -3.414062 3.242188 -3.179688 3.140625 -2.953125 C 3.015625 -2.734375 2.992188 -2.566406 3.078125 -2.453125 C 3.160156 -2.347656 3.550781 -2.476562 4.25 -2.84375 L 4.78125 -3.15625 C 5.28125 -3.476562 5.550781 -3.597656 5.59375 -3.515625 Z M 5.59375 -3.515625 "/></g></g><g style="fill:#000000;fill-opacity:1;"><g transform="translate(36.054264, 26.010155)"><path style="stroke:none" d="M 6.234375 -3.78125 C 6.265625 -3.789062 6.300781 -3.789062 6.34375 -3.78125 C 6.394531 -3.769531 6.4375 -3.75 6.46875 -3.71875 C 6.488281 -3.664062 6.484375 -3.613281 6.453125 -3.5625 C 6.429688 -3.507812 6.390625 -3.46875 6.328125 -3.4375 C 5.898438 -3.238281 5.472656 -3.023438 5.046875 -2.796875 C 4.546875 -2.535156 4.039062 -2.28125 3.53125 -2.03125 C 3.457031 -2 3.382812 -1.960938 3.3125 -1.921875 C 3.195312 -1.859375 3.082031 -1.800781 2.96875 -1.75 C 2.707031 -1.625 2.535156 -1.425781 2.453125 -1.15625 C 2.222656 -0.519531 1.988281 0.113281 1.75 0.75 C 1.425781 1.59375 1.023438 2.394531 0.546875 3.15625 C 0.273438 3.59375 -0.0507812 3.976562 -0.4375 4.3125 C -0.882812 4.75 -1.40625 5.019531 -2 5.125 C -2.96875 5.320312 -3.90625 5.257812 -4.8125 4.9375 C -5.1875 4.8125 -5.503906 4.601562 -5.765625 4.3125 C -6.128906 3.914062 -6.148438 3.492188 -5.828125 3.046875 C -5.679688 2.859375 -5.515625 2.679688 -5.328125 2.515625 C -4.929688 2.148438 -4.5 1.828125 -4.03125 1.546875 C -2.363281 0.472656 -0.648438 -0.507812 1.109375 -1.40625 C 1.117188 -1.40625 1.125 -1.40625 1.125 -1.40625 C 1.300781 -1.5 1.484375 -1.597656 1.671875 -1.703125 C 1.691406 -1.722656 1.726562 -1.769531 1.78125 -1.84375 C 1.832031 -1.925781 1.867188 -2.003906 1.890625 -2.078125 C 1.921875 -2.160156 1.914062 -2.21875 1.875 -2.25 C 1.84375 -2.289062 1.75 -2.273438 1.59375 -2.203125 C 1.53125 -2.179688 1.472656 -2.15625 1.421875 -2.125 C 1.285156 -2.0625 1.148438 -2.003906 1.015625 -1.953125 C 0.203125 -1.753906 -0.203125 -2.0625 -0.203125 -2.875 C -0.179688 -3.363281 -0.0351562 -3.804688 0.234375 -4.203125 C 0.515625 -4.597656 0.867188 -4.90625 1.296875 -5.125 C 1.722656 -5.351562 2.1875 -5.441406 2.6875 -5.390625 C 2.738281 -5.390625 2.789062 -5.378906 2.84375 -5.359375 C 2.976562 -5.335938 3.113281 -5.328125 3.25 -5.328125 C 3.394531 -5.328125 3.539062 -5.359375 3.6875 -5.421875 C 3.84375 -5.484375 3.957031 -5.46875 4.03125 -5.375 C 4.113281 -5.28125 4.128906 -5.15625 4.078125 -5 C 3.941406 -4.707031 3.804688 -4.410156 3.671875 -4.109375 C 3.578125 -3.921875 3.488281 -3.726562 3.40625 -3.53125 C 3.3125 -3.320312 3.21875 -3.113281 3.125 -2.90625 C 3 -2.625 2.976562 -2.472656 3.0625 -2.453125 C 3.15625 -2.441406 3.3125 -2.492188 3.53125 -2.609375 C 3.5625 -2.617188 3.59375 -2.625 3.625 -2.625 C 4.019531 -2.820312 4.414062 -3.007812 4.8125 -3.1875 C 5.09375 -3.3125 5.375 -3.441406 5.65625 -3.578125 C 5.84375 -3.660156 6.035156 -3.726562 6.234375 -3.78125 Z M 1.21875 0 C 1.363281 -0.40625 1.425781 -0.671875 1.40625 -0.796875 C 1.382812 -0.929688 1.289062 -0.96875 1.125 -0.90625 C 0.96875 -0.84375 0.757812 -0.734375 0.5 -0.578125 C 0.332031 -0.472656 0.148438 -0.367188 -0.046875 -0.265625 C -1.234375 0.378906 -2.390625 1.070312 -3.515625 1.8125 C -4.015625 2.101562 -4.460938 2.453125 -4.859375 2.859375 C -5.265625 3.304688 -5.25 3.703125 -4.8125 4.046875 C -4.550781 4.253906 -4.257812 4.394531 -3.9375 4.46875 C -3.625 4.550781 -3.28125 4.59375 -2.90625 4.59375 C -2.457031 4.632812 -2.039062 4.554688 -1.65625 4.359375 C -1.28125 4.160156 -0.925781 3.863281 -0.59375 3.46875 C -0.40625 3.207031 -0.222656 2.9375 -0.046875 2.65625 C 0.472656 1.8125 0.894531 0.925781 1.21875 0 Z M 0.75 -2.484375 C 0.875 -2.429688 1.050781 -2.476562 1.28125 -2.625 C 1.507812 -2.769531 1.742188 -2.960938 1.984375 -3.203125 C 2.234375 -3.453125 2.429688 -3.707031 2.578125 -3.96875 C 2.722656 -4.226562 2.757812 -4.445312 2.6875 -4.625 C 2.664062 -4.675781 2.632812 -4.722656 2.59375 -4.765625 C 2.519531 -4.847656 2.4375 -4.890625 2.34375 -4.890625 C 2.25 -4.890625 2.148438 -4.875 2.046875 -4.84375 C 1.703125 -4.707031 1.398438 -4.472656 1.140625 -4.140625 C 0.878906 -3.804688 0.703125 -3.476562 0.609375 -3.15625 C 0.523438 -2.832031 0.570312 -2.609375 0.75 -2.484375 Z M 0.75 -2.484375 "/></g></g><g style="fill:#000000;fill-opacity:1;"><g transform="translate(42.081248, 26.010155)"><path style="stroke:none" d="M 36.453125 -20.359375 C 36.578125 -20.265625 36.6875 -20.148438 36.78125 -20.015625 C 36.882812 -19.890625 36.953125 -19.738281 36.984375 -19.5625 C 37.015625 -19.363281 36.941406 -19.210938 36.765625 -19.109375 C 36.660156 -19.054688 36.554688 -19.046875 36.453125 -19.078125 C 36.359375 -19.117188 36.289062 -19.195312 36.25 -19.3125 C 36.132812 -19.625 35.960938 -19.867188 35.734375 -20.046875 C 35.515625 -20.222656 35.269531 -20.378906 35 -20.515625 C 34.40625 -20.828125 33.789062 -21.082031 33.15625 -21.28125 C 32.53125 -21.476562 31.894531 -21.648438 31.25 -21.796875 C 30.1875 -22.015625 28.765625 -22.160156 26.984375 -22.234375 C 25.210938 -22.304688 23.238281 -22.28125 21.0625 -22.15625 C 18.882812 -22.03125 16.65625 -21.796875 14.375 -21.453125 C 12.09375 -21.109375 9.90625 -20.632812 7.8125 -20.03125 C 5.726562 -19.425781 3.894531 -18.671875 2.3125 -17.765625 C 0.738281 -16.867188 -0.4375 -15.8125 -1.21875 -14.59375 C -1.863281 -13.53125 -1.992188 -12.40625 -1.609375 -11.21875 C -1.316406 -10.40625 -0.910156 -9.671875 -0.390625 -9.015625 C 0.398438 -8.015625 1.269531 -7.101562 2.21875 -6.28125 C 3.03125 -5.550781 3.84375 -4.816406 4.65625 -4.078125 C 5.445312 -3.367188 6.242188 -2.65625 7.046875 -1.9375 C 7.941406 -1.113281 8.816406 -0.285156 9.671875 0.546875 C 9.753906 0.628906 9.835938 0.707031 9.921875 0.78125 C 10.390625 1.21875 10.800781 1.695312 11.15625 2.21875 C 11.507812 2.820312 11.570312 3.289062 11.34375 3.625 C 11.125 3.957031 10.703125 4.179688 10.078125 4.296875 C 9.453125 4.410156 8.722656 4.445312 7.890625 4.40625 C 7.066406 4.363281 6.234375 4.257812 5.390625 4.09375 C 4.554688 3.9375 3.8125 3.742188 3.15625 3.515625 C 2.507812 3.285156 2.050781 3.050781 1.78125 2.8125 C 1.25 2.3125 1.210938 1.785156 1.671875 1.234375 C 2.179688 0.660156 2.796875 0.25 3.515625 0 C 4.566406 -0.40625 5.628906 -0.441406 6.703125 -0.109375 C 6.910156 -0.0351562 7.109375 0.0625 7.296875 0.1875 C 7.316406 0.195312 7.332031 0.207031 7.34375 0.21875 C 7.394531 0.25 7.429688 0.289062 7.453125 0.34375 C 7.472656 0.40625 7.460938 0.46875 7.421875 0.53125 C 7.335938 0.632812 7.234375 0.664062 7.109375 0.625 C 6.992188 0.582031 6.882812 0.53125 6.78125 0.46875 C 6.039062 0.101562 5.273438 0.0234375 4.484375 0.234375 C 3.703125 0.453125 3.039062 0.882812 2.5 1.53125 C 2.257812 1.832031 2.242188 2.097656 2.453125 2.328125 C 2.671875 2.566406 3 2.765625 3.4375 2.921875 C 3.875 3.085938 4.3125 3.21875 4.75 3.3125 C 5.1875 3.40625 5.515625 3.46875 5.734375 3.5 C 5.773438 3.5 5.804688 3.503906 5.828125 3.515625 C 5.867188 3.515625 5.921875 3.519531 5.984375 3.53125 C 6.253906 3.59375 6.628906 3.65625 7.109375 3.71875 C 7.597656 3.789062 8.097656 3.835938 8.609375 3.859375 C 9.117188 3.890625 9.554688 3.859375 9.921875 3.765625 C 10.296875 3.671875 10.503906 3.488281 10.546875 3.21875 C 10.597656 2.945312 10.394531 2.550781 9.9375 2.03125 C 9.445312 1.46875 8.929688 0.921875 8.390625 0.390625 C 7.046875 -0.910156 5.664062 -2.171875 4.25 -3.390625 C 3.75 -3.847656 3.242188 -4.304688 2.734375 -4.765625 C 1.878906 -5.523438 1.046875 -6.304688 0.234375 -7.109375 C -0.523438 -7.835938 -1.191406 -8.644531 -1.765625 -9.53125 C -2.179688 -10.164062 -2.472656 -10.851562 -2.640625 -11.59375 C -2.890625 -12.800781 -2.664062 -13.921875 -1.96875 -14.953125 C -1.207031 -16.097656 -0.101562 -17.113281 1.34375 -18 C 2.789062 -18.882812 4.46875 -19.640625 6.375 -20.265625 C 8.289062 -20.890625 10.328125 -21.394531 12.484375 -21.78125 C 14.648438 -22.164062 16.832031 -22.4375 19.03125 -22.59375 C 21.238281 -22.757812 23.351562 -22.816406 25.375 -22.765625 C 27.394531 -22.722656 29.222656 -22.570312 30.859375 -22.3125 C 32.503906 -22.0625 33.851562 -21.710938 34.90625 -21.265625 C 35.457031 -21.046875 35.972656 -20.742188 36.453125 -20.359375 Z M 36.453125 -20.359375 "/></g></g><g style="fill:#000000;fill-opacity:1;"><g transform="translate(52.483795, 26.010155)"><path style="stroke:none" d="M 5.625 -3.703125 C 5.519531 -3.660156 5.410156 -3.625 5.296875 -3.59375 C 5.265625 -3.582031 5.238281 -3.570312 5.21875 -3.5625 C 5.101562 -3.519531 4.988281 -3.476562 4.875 -3.4375 C 4.550781 -3.332031 4.222656 -3.222656 3.890625 -3.109375 C 3.640625 -3.035156 3.445312 -2.878906 3.3125 -2.640625 C 3.082031 -2.273438 2.789062 -1.988281 2.4375 -1.78125 C 2.09375 -1.570312 1.742188 -1.421875 1.390625 -1.328125 C 1.035156 -1.242188 0.71875 -1.191406 0.4375 -1.171875 C 0.164062 -1.148438 -0.0078125 -1.144531 -0.09375 -1.15625 C -0.101562 -1.15625 -0.113281 -1.15625 -0.125 -1.15625 C -0.238281 -1.082031 -0.351562 -0.941406 -0.46875 -0.734375 C -0.582031 -0.535156 -0.679688 -0.351562 -0.765625 -0.1875 C -0.785156 -0.144531 -0.796875 -0.109375 -0.796875 -0.078125 C -1.265625 0.859375 -1.726562 1.789062 -2.1875 2.71875 C -2.445312 3.238281 -2.707031 3.757812 -2.96875 4.28125 C -3.050781 4.457031 -3.148438 4.632812 -3.265625 4.8125 C -3.367188 4.9375 -3.5 4.960938 -3.65625 4.890625 C -3.75 4.804688 -3.769531 4.703125 -3.71875 4.578125 C -3.675781 4.441406 -3.625 4.300781 -3.5625 4.15625 C -2.75 2.25 -1.890625 0.359375 -0.984375 -1.515625 C -0.703125 -2.097656 -0.4375 -2.6875 -0.1875 -3.28125 C -0.0703125 -3.5625 0.046875 -3.847656 0.171875 -4.140625 C 0.179688 -4.171875 0.195312 -4.203125 0.21875 -4.234375 C 0.28125 -4.390625 0.351562 -4.539062 0.4375 -4.6875 C 0.476562 -4.738281 0.546875 -4.769531 0.640625 -4.78125 C 0.742188 -4.800781 0.835938 -4.789062 0.921875 -4.75 C 1.015625 -4.6875 1.0625 -4.59375 1.0625 -4.46875 C 1.0625 -4.40625 1.046875 -4.34375 1.015625 -4.28125 C 1.003906 -4.226562 0.992188 -4.175781 0.984375 -4.125 C 0.984375 -4.070312 1 -4.019531 1.03125 -3.96875 C 1.113281 -3.957031 1.179688 -3.96875 1.234375 -4 C 1.285156 -4.03125 1.335938 -4.066406 1.390625 -4.109375 C 1.441406 -4.148438 1.503906 -4.179688 1.578125 -4.203125 C 1.617188 -4.222656 1.660156 -4.242188 1.703125 -4.265625 C 1.929688 -4.367188 2.15625 -4.457031 2.375 -4.53125 C 2.664062 -4.625 2.953125 -4.601562 3.234375 -4.46875 C 3.359375 -4.394531 3.445312 -4.300781 3.5 -4.1875 C 3.5625 -4.082031 3.613281 -3.96875 3.65625 -3.84375 C 3.6875 -3.75 3.769531 -3.695312 3.90625 -3.6875 C 4.039062 -3.6875 4.191406 -3.707031 4.359375 -3.75 C 4.535156 -3.789062 4.695312 -3.832031 4.84375 -3.875 C 4.957031 -3.90625 5.039062 -3.925781 5.09375 -3.9375 C 5.238281 -3.96875 5.382812 -3.976562 5.53125 -3.96875 C 5.570312 -3.96875 5.609375 -3.957031 5.640625 -3.9375 C 5.671875 -3.925781 5.6875 -3.890625 5.6875 -3.828125 C 5.6875 -3.804688 5.679688 -3.78125 5.671875 -3.75 C 5.660156 -3.726562 5.644531 -3.710938 5.625 -3.703125 Z M 2.65625 -3.234375 C 2.75 -3.296875 2.804688 -3.394531 2.828125 -3.53125 C 2.847656 -3.675781 2.832031 -3.816406 2.78125 -3.953125 C 2.757812 -3.992188 2.726562 -4.019531 2.6875 -4.03125 C 2.644531 -4.050781 2.601562 -4.0625 2.5625 -4.0625 C 2.476562 -4.050781 2.394531 -4.023438 2.3125 -3.984375 C 1.445312 -3.546875 0.742188 -2.925781 0.203125 -2.125 C 0.0976562 -1.9375 0.109375 -1.851562 0.234375 -1.875 C 0.367188 -1.894531 0.566406 -1.972656 0.828125 -2.109375 C 1.085938 -2.253906 1.351562 -2.414062 1.625 -2.59375 C 1.90625 -2.769531 2.144531 -2.925781 2.34375 -3.0625 C 2.519531 -3.164062 2.625 -3.222656 2.65625 -3.234375 Z M 2.65625 -3.234375 "/></g></g><g style="fill:#000000;fill-opacity:1;"><g transform="translate(57.685075, 26.010155)"><path style="stroke:none" d="M 5.109375 -3.59375 C 5.222656 -3.53125 5.234375 -3.378906 5.140625 -3.140625 C 5.003906 -2.953125 4.859375 -2.78125 4.703125 -2.625 C 4.546875 -2.476562 4.378906 -2.34375 4.203125 -2.21875 C 4.179688 -2.21875 4.171875 -2.210938 4.171875 -2.203125 C 4.054688 -2.117188 3.929688 -2.046875 3.796875 -1.984375 C 2.671875 -1.578125 2.09375 -1.816406 2.0625 -2.703125 C 1.613281 -2.304688 1.3125 -2.0625 1.15625 -1.96875 C 0.78125 -1.75 0.375 -1.648438 -0.0625 -1.671875 C -0.375 -1.691406 -0.585938 -1.789062 -0.703125 -1.96875 C -0.816406 -2.144531 -0.804688 -2.382812 -0.671875 -2.6875 C -0.460938 -3.15625 -0.171875 -3.578125 0.203125 -3.953125 C 0.648438 -4.367188 1.144531 -4.703125 1.6875 -4.953125 C 1.976562 -5.097656 2.285156 -5.148438 2.609375 -5.109375 C 2.929688 -5.097656 3.125 -4.921875 3.1875 -4.578125 C 3.21875 -4.472656 3.191406 -4.378906 3.109375 -4.296875 C 3.003906 -4.203125 2.882812 -4.179688 2.75 -4.234375 C 2.738281 -4.234375 2.722656 -4.234375 2.703125 -4.234375 C 2.691406 -4.242188 2.679688 -4.253906 2.671875 -4.265625 C 2.535156 -4.453125 2.394531 -4.53125 2.25 -4.5 C 2.113281 -4.46875 1.972656 -4.40625 1.828125 -4.3125 C 1.097656 -3.882812 0.554688 -3.296875 0.203125 -2.546875 C 0.179688 -2.503906 0.164062 -2.460938 0.15625 -2.421875 C 0.15625 -2.390625 0.171875 -2.359375 0.203125 -2.328125 C 0.285156 -2.304688 0.378906 -2.3125 0.484375 -2.34375 C 0.585938 -2.382812 0.691406 -2.441406 0.796875 -2.515625 C 0.898438 -2.597656 0.988281 -2.664062 1.0625 -2.71875 C 1.070312 -2.738281 1.078125 -2.75 1.078125 -2.75 C 1.421875 -3.03125 1.753906 -3.320312 2.078125 -3.625 C 2.222656 -3.78125 2.40625 -3.867188 2.625 -3.890625 C 2.9375 -3.890625 3.066406 -3.75 3.015625 -3.46875 C 2.984375 -3.363281 2.953125 -3.257812 2.921875 -3.15625 C 2.796875 -2.707031 2.789062 -2.445312 2.90625 -2.375 C 3.019531 -2.300781 3.191406 -2.300781 3.421875 -2.375 C 3.660156 -2.445312 3.894531 -2.59375 4.125 -2.8125 C 4.351562 -3.03125 4.546875 -3.226562 4.703125 -3.40625 C 4.867188 -3.59375 5.003906 -3.65625 5.109375 -3.59375 Z M 5.109375 -3.59375 "/></g></g><g style="fill:#000000;fill-opacity:1;"><g transform="translate(62.364111, 26.010155)"><path style="stroke:none" d="M 5.09375 -3.671875 C 5.113281 -3.671875 5.140625 -3.664062 5.171875 -3.65625 C 5.203125 -3.644531 5.226562 -3.628906 5.25 -3.609375 C 5.3125 -3.546875 5.316406 -3.472656 5.265625 -3.390625 C 5.203125 -3.316406 5.140625 -3.257812 5.078125 -3.21875 C 4.710938 -2.875 4.3125 -2.59375 3.875 -2.375 C 3.175781 -2.019531 2.40625 -1.835938 1.5625 -1.828125 C 1.25 -1.816406 0.929688 -1.867188 0.609375 -1.984375 C 0.00390625 -2.210938 -0.238281 -2.644531 -0.125 -3.28125 C 0.0078125 -3.875 0.335938 -4.363281 0.859375 -4.75 C 1.390625 -5.132812 1.957031 -5.300781 2.5625 -5.25 C 2.675781 -5.238281 2.789062 -5.21875 2.90625 -5.1875 C 3.007812 -5.132812 3.085938 -5.066406 3.140625 -4.984375 C 3.191406 -4.910156 3.191406 -4.847656 3.140625 -4.796875 C 3.035156 -4.671875 2.910156 -4.640625 2.765625 -4.703125 C 2.546875 -4.796875 2.34375 -4.820312 2.15625 -4.78125 C 1.976562 -4.738281 1.796875 -4.640625 1.609375 -4.484375 C 1.429688 -4.347656 1.238281 -4.148438 1.03125 -3.890625 C 0.832031 -3.628906 0.703125 -3.363281 0.640625 -3.09375 C 0.585938 -2.832031 0.707031 -2.625 1 -2.46875 C 1.320312 -2.320312 1.65625 -2.285156 2 -2.359375 C 2.851562 -2.535156 3.648438 -2.859375 4.390625 -3.328125 C 4.453125 -3.359375 4.507812 -3.394531 4.5625 -3.4375 C 4.644531 -3.5 4.726562 -3.550781 4.8125 -3.59375 C 4.894531 -3.632812 4.988281 -3.660156 5.09375 -3.671875 Z M 5.09375 -3.671875 "/></g></g><g style="fill:#000000;fill-opacity:1;"><g transform="translate(67.071376, 26.010155)"><path style="stroke:none" d="M 4.015625 -2.703125 C 3.742188 -2.441406 3.425781 -2.210938 3.0625 -2.015625 C 2.707031 -1.828125 2.40625 -1.703125 2.15625 -1.640625 C 1.914062 -1.585938 1.664062 -1.554688 1.40625 -1.546875 C 0.988281 -1.523438 0.609375 -1.582031 0.265625 -1.71875 C -0.304688 -1.945312 -0.503906 -2.382812 -0.328125 -3.03125 C -0.160156 -3.59375 0.171875 -4.03125 0.671875 -4.34375 C 1.171875 -4.65625 1.691406 -4.8125 2.234375 -4.8125 C 2.234375 -4.8125 2.238281 -4.8125 2.25 -4.8125 C 2.382812 -4.8125 2.507812 -4.800781 2.625 -4.78125 C 2.832031 -4.707031 2.960938 -4.582031 3.015625 -4.40625 C 3.078125 -4.238281 3.046875 -4.050781 2.921875 -3.84375 C 2.617188 -3.382812 2.207031 -3.128906 1.6875 -3.078125 C 1.34375 -3.046875 1.007812 -3.066406 0.6875 -3.140625 C 0.625 -3.140625 0.566406 -3.117188 0.515625 -3.078125 C 0.472656 -3.035156 0.445312 -2.984375 0.4375 -2.921875 C 0.34375 -2.523438 0.46875 -2.269531 0.8125 -2.15625 C 1.238281 -2.007812 1.679688 -2.007812 2.140625 -2.15625 C 2.660156 -2.320312 3.160156 -2.628906 3.640625 -3.078125 C 4.117188 -3.535156 4.394531 -3.75 4.46875 -3.71875 C 4.539062 -3.6875 4.5625 -3.597656 4.53125 -3.453125 C 4.46875 -3.222656 4.296875 -2.972656 4.015625 -2.703125 Z M 1.015625 -3.84375 C 0.984375 -3.8125 0.960938 -3.773438 0.953125 -3.734375 C 0.941406 -3.691406 0.957031 -3.65625 1 -3.625 C 1.164062 -3.53125 1.34375 -3.492188 1.53125 -3.515625 C 1.726562 -3.546875 1.894531 -3.617188 2.03125 -3.734375 C 2.164062 -3.859375 2.222656 -4.007812 2.203125 -4.1875 C 2.191406 -4.25 2.160156 -4.285156 2.109375 -4.296875 C 2.054688 -4.316406 2.003906 -4.320312 1.953125 -4.3125 C 1.597656 -4.25 1.285156 -4.09375 1.015625 -3.84375 Z M 1.015625 -3.84375 "/></g></g><g style="fill:#000000;fill-opacity:1;"><g transform="translate(71.178758, 26.010155)"><path style="stroke:none" d="M 3.421875 -3.578125 C 2.671875 -3.296875 2.132812 -3.070312 1.8125 -2.90625 C 1.570312 -2.78125 1.429688 -2.675781 1.390625 -2.59375 C 1.359375 -2.519531 1.382812 -2.382812 1.46875 -2.1875 C 1.46875 -2.175781 1.476562 -2.160156 1.5 -2.140625 C 1.601562 -1.890625 1.660156 -1.628906 1.671875 -1.359375 C 1.710938 -0.816406 1.253906 -0.4375 0.296875 -0.21875 C -0.648438 -0.0078125 -1.285156 -0.00390625 -1.609375 -0.203125 C -1.929688 -0.410156 -2.03125 -0.664062 -1.90625 -0.96875 C -1.78125 -1.28125 -1.457031 -1.597656 -0.9375 -1.921875 C -0.414062 -2.242188 -0.0664062 -2.472656 0.109375 -2.609375 C 0.285156 -2.753906 0.335938 -2.910156 0.265625 -3.078125 C 0.242188 -3.140625 0.21875 -3.203125 0.1875 -3.265625 C 0.125 -3.410156 0.0625 -3.5625 0 -3.71875 C -0.125 -4 -0.175781 -4.273438 -0.15625 -4.546875 C -0.144531 -4.828125 -0.046875 -5.054688 0.140625 -5.234375 C 0.328125 -5.421875 0.617188 -5.523438 1.015625 -5.546875 C 1.234375 -5.546875 1.425781 -5.507812 1.59375 -5.4375 C 1.769531 -5.375 1.910156 -5.253906 2.015625 -5.078125 C 2.097656 -4.953125 2.070312 -4.835938 1.9375 -4.734375 C 1.851562 -4.660156 1.757812 -4.648438 1.65625 -4.703125 C 1.582031 -4.734375 1.515625 -4.769531 1.453125 -4.8125 C 1.453125 -4.832031 1.453125 -4.84375 1.453125 -4.84375 C 1.429688 -4.863281 1.410156 -4.878906 1.390625 -4.890625 C 1.359375 -4.941406 1.328125 -4.976562 1.296875 -5 C 1.171875 -5.082031 1.046875 -5.109375 0.921875 -5.078125 C 0.796875 -5.046875 0.703125 -4.953125 0.640625 -4.796875 C 0.597656 -4.671875 0.578125 -4.546875 0.578125 -4.421875 C 0.585938 -4.265625 0.625 -4.113281 0.6875 -3.96875 C 0.726562 -3.875 0.765625 -3.789062 0.796875 -3.71875 C 0.878906 -3.507812 0.945312 -3.363281 1 -3.28125 C 1.050781 -3.207031 1.113281 -3.175781 1.1875 -3.1875 C 1.257812 -3.207031 1.925781 -3.445312 3.1875 -3.90625 C 3.457031 -4 3.535156 -3.890625 3.421875 -3.578125 Z M 0.359375 -0.875 C 0.691406 -0.988281 0.832031 -1.210938 0.78125 -1.546875 C 0.78125 -1.566406 0.773438 -1.59375 0.765625 -1.625 C 0.742188 -1.800781 0.703125 -1.9375 0.640625 -2.03125 C 0.585938 -2.132812 0.460938 -2.132812 0.265625 -2.03125 C -0.222656 -1.75 -0.675781 -1.421875 -1.09375 -1.046875 C -1.113281 -1.015625 -1.140625 -0.984375 -1.171875 -0.953125 C -1.171875 -0.953125 -1.171875 -0.945312 -1.171875 -0.9375 C -1.203125 -0.894531 -1.207031 -0.847656 -1.1875 -0.796875 C -1.175781 -0.753906 -1.132812 -0.734375 -1.0625 -0.734375 C -0.582031 -0.660156 -0.109375 -0.707031 0.359375 -0.875 Z M 0.359375 -0.875 "/></g></g></g></g></g><path style=" stroke:none;fill-rule:nonzero;fill:#000000;fill-opacity:1;" d="M 89.59375 20.929688 C 89.609375 20.9375 89.628906 20.941406 89.644531 20.941406 C 89.695312 20.941406 89.746094 20.910156 89.765625 20.863281 C 90.125 20.070312 90.6875 19.214844 91.429688 18.316406 C 91.476562 18.261719 91.46875 18.179688 91.410156 18.132812 C 91.355469 18.085938 91.269531 18.097656 91.226562 18.152344 C 90.464844 19.066406 89.894531 19.945312 89.527344 20.757812 C 89.496094 20.820312 89.527344 20.898438 89.59375 20.929688 "/><g clip-rule="nonzero" clip-path="url(#3f3adee839)"><path style=" stroke:none;fill-rule:nonzero;fill:#000000;fill-opacity:1;" d="M 86.242188 30.671875 C 86.207031 30.609375 86.128906 30.585938 86.066406 30.617188 C 86 30.648438 85.976562 30.726562 86.007812 30.792969 C 86.019531 30.816406 86.324219 31.367188 87.992188 32.035156 C 89.046875 32.457031 89.675781 32.535156 90.003906 32.535156 C 90.199219 32.535156 90.289062 32.507812 90.296875 32.507812 C 90.367188 32.484375 90.402344 32.410156 90.378906 32.34375 C 90.359375 32.277344 90.285156 32.238281 90.214844 32.257812 C 90.210938 32.261719 89.644531 32.414062 88.09375 31.792969 C 86.550781 31.179688 86.25 30.683594 86.242188 30.671875 "/></g><g clip-rule="nonzero" clip-path="url(#568a70f3c5)"><path style=" stroke:none;fill-rule:nonzero;fill:#000000;fill-opacity:1;" d="M 104.832031 29.625 C 104.300781 29.871094 103.632812 30.09375 103.082031 30.210938 C 102.367188 30.363281 102.148438 30.273438 102.128906 30.230469 C 102.082031 30.136719 102.515625 29.835938 102.773438 29.65625 C 103.425781 29.207031 104.238281 28.648438 103.902344 27.949219 L 101.96875 23.882812 C 101.835938 23.605469 101.546875 23.445312 101.289062 23.351562 C 101.390625 23.316406 101.476562 23.28125 101.535156 23.253906 L 101.75 23.152344 L 101.964844 23.054688 C 102.023438 23.027344 102.101562 22.988281 102.195312 22.933594 C 102.101562 23.1875 102.042969 23.507812 102.179688 23.785156 L 104.113281 27.851562 C 104.445312 28.550781 105.402344 28.292969 106.171875 28.089844 C 106.476562 28.007812 106.988281 27.871094 107.03125 27.96875 C 107.125 28.160156 106.070312 29.050781 104.832031 29.625 Z M 98.671875 22.933594 C 97.257812 22.128906 96.359375 20.0625 96.066406 16.960938 C 96.617188 16.953125 97.832031 16.425781 98.414062 16.15625 C 99.035156 15.871094 99.601562 15.570312 100.015625 15.308594 C 100.292969 15.132812 100.460938 15.003906 100.550781 14.898438 C 102.78125 17.105469 103.820312 19.101562 103.542969 20.683594 C 103.304688 22.050781 102.1875 22.664062 101.851562 22.820312 L 101.421875 23.015625 C 101.085938 23.171875 99.890625 23.625 98.671875 22.933594 Z M 93.746094 25.125 C 92.566406 25.882812 91.347656 25.492188 91.003906 25.351562 L 90.785156 25.265625 L 90.5625 25.175781 C 90.21875 25.039062 89.070312 24.484375 88.757812 23.132812 C 88.398438 21.566406 89.324219 19.519531 91.433594 17.203125 C 91.53125 17.300781 91.707031 17.421875 91.992188 17.582031 C 92.417969 17.820312 93.003906 18.09375 93.636719 18.347656 C 94.269531 18.597656 94.878906 18.804688 95.351562 18.925781 C 95.660156 19.003906 95.867188 19.035156 96.007812 19.035156 C 96.011719 19.035156 96.015625 19.035156 96.023438 19.035156 C 95.898438 22.144531 95.113281 24.25 93.746094 25.125 Z M 90.503906 26.246094 L 88.789062 30.40625 C 88.496094 31.121094 89.335938 31.640625 90.011719 32.054688 C 90.277344 32.21875 90.726562 32.496094 90.6875 32.59375 C 90.667969 32.636719 90.453125 32.738281 89.734375 32.621094 C 89.179688 32.535156 88.496094 32.347656 87.957031 32.128906 C 87.414062 31.914062 86.789062 31.582031 86.332031 31.261719 C 85.734375 30.851562 85.648438 30.632812 85.667969 30.589844 C 85.707031 30.488281 86.222656 30.601562 86.53125 30.664062 C 87.3125 30.832031 88.28125 31.035156 88.574219 30.320312 L 90.289062 26.160156 C 90.40625 25.875 90.332031 25.558594 90.226562 25.308594 C 90.320312 25.359375 90.40625 25.394531 90.464844 25.417969 L 90.683594 25.507812 L 90.90625 25.59375 C 90.964844 25.617188 91.050781 25.648438 91.152344 25.679688 C 90.898438 25.785156 90.621094 25.960938 90.503906 26.246094 Z M 93.890625 17.730469 C 95.003906 18.175781 95.738281 18.582031 95.964844 18.777344 C 95.664062 18.761719 94.847656 18.550781 93.734375 18.105469 C 92.621094 17.660156 91.886719 17.253906 91.660156 17.054688 C 91.960938 17.074219 92.777344 17.285156 93.890625 17.730469 Z M 98.128906 15.554688 C 99.21875 15.050781 100.019531 14.800781 100.320312 14.765625 C 100.101562 14.972656 99.390625 15.417969 98.304688 15.921875 C 97.214844 16.421875 96.414062 16.675781 96.113281 16.710938 C 96.332031 16.503906 97.039062 16.058594 98.128906 15.554688 Z M 107.273438 27.855469 C 107.132812 27.5625 106.679688 27.683594 106.101562 27.835938 C 105.429688 28.015625 104.59375 28.242188 104.355469 27.738281 L 102.417969 23.675781 C 102.230469 23.28125 102.589844 22.714844 102.644531 22.632812 C 103.109375 22.261719 103.640625 21.65625 103.804688 20.726562 C 104.105469 19.003906 103.03125 16.941406 100.621094 14.597656 C 100.546875 14.480469 100.34375 14.449219 99.699219 14.648438 C 99.234375 14.796875 98.636719 15.03125 98.015625 15.320312 C 97.398438 15.605469 96.828125 15.90625 96.417969 16.164062 C 95.851562 16.523438 95.746094 16.695312 95.789062 16.828125 C 95.839844 17.417969 95.910156 17.964844 96 18.476562 C 95.90625 18.410156 95.785156 18.335938 95.632812 18.25 C 95.207031 18.011719 94.621094 17.742188 93.988281 17.488281 C 93.28125 17.207031 91.671875 16.605469 91.375 16.878906 C 91.371094 16.882812 91.367188 16.886719 91.363281 16.890625 C 89.070312 19.363281 88.109375 21.484375 88.5 23.191406 C 88.710938 24.109375 89.277344 24.6875 89.761719 25.03125 C 89.898438 25.207031 90.191406 25.707031 90.042969 26.0625 L 88.332031 30.222656 C 88.117188 30.734375 87.269531 30.554688 86.589844 30.410156 C 86.007812 30.285156 85.546875 30.1875 85.421875 30.492188 C 85.320312 30.734375 85.570312 31.054688 86.179688 31.476562 C 86.652344 31.804688 87.296875 32.148438 87.855469 32.371094 C 88.414062 32.59375 89.117188 32.789062 89.691406 32.878906 C 89.929688 32.917969 90.136719 32.9375 90.304688 32.9375 C 90.660156 32.9375 90.863281 32.855469 90.933594 32.691406 C 91.054688 32.390625 90.65625 32.144531 90.152344 31.832031 C 89.558594 31.46875 88.824219 31.015625 89.035156 30.503906 L 90.75 26.34375 C 90.917969 25.933594 91.597656 25.8125 91.6875 25.800781 C 91.839844 25.820312 92.007812 25.835938 92.191406 25.835938 C 92.699219 25.835938 93.300781 25.722656 93.890625 25.34375 C 95.261719 24.464844 96.054688 22.542969 96.257812 19.636719 C 96.726562 21.378906 97.492188 22.5625 98.539062 23.15625 C 99.082031 23.464844 99.617188 23.566406 100.089844 23.566406 C 100.335938 23.566406 100.5625 23.539062 100.765625 23.5 C 100.984375 23.519531 101.5625 23.644531 101.726562 23.996094 L 103.664062 28.058594 C 103.902344 28.558594 103.191406 29.050781 102.621094 29.445312 C 102.132812 29.78125 101.75 30.046875 101.890625 30.34375 C 101.957031 30.484375 102.132812 30.558594 102.421875 30.558594 C 102.613281 30.558594 102.851562 30.527344 103.136719 30.464844 C 103.707031 30.34375 104.398438 30.113281 104.945312 29.859375 C 105.851562 29.441406 107.527344 28.386719 107.273438 27.855469 "/></g><path style=" stroke:none;fill-rule:nonzero;fill:#000000;fill-opacity:1;" d="M 102.535156 18.527344 C 102.558594 18.574219 102.605469 18.601562 102.652344 18.601562 C 102.671875 18.601562 102.691406 18.597656 102.710938 18.585938 C 102.777344 18.554688 102.804688 18.476562 102.769531 18.410156 C 102.347656 17.578125 101.695312 16.6875 100.828125 15.761719 C 100.78125 15.710938 100.695312 15.707031 100.644531 15.753906 C 100.589844 15.804688 100.585938 15.886719 100.636719 15.9375 C 101.480469 16.84375 102.121094 17.71875 102.535156 18.527344 "/><path style=" stroke:none;fill-rule:nonzero;fill:#000000;fill-opacity:1;" d="M 106.636719 28.015625 C 106.574219 27.988281 106.492188 28.015625 106.460938 28.078125 C 106.460938 28.085938 106.191406 28.597656 104.675781 29.296875 C 103.15625 29.996094 102.585938 29.871094 102.582031 29.871094 C 102.511719 29.851562 102.441406 29.894531 102.417969 29.960938 C 102.398438 30.03125 102.441406 30.105469 102.511719 30.125 C 102.519531 30.125 102.582031 30.140625 102.710938 30.140625 C 103.007812 30.140625 103.652344 30.058594 104.789062 29.535156 C 106.417969 28.78125 106.691406 28.210938 106.703125 28.1875 C 106.734375 28.121094 106.703125 28.046875 106.636719 28.015625 "/><path style=" stroke:none;fill-rule:nonzero;fill:#000000;fill-opacity:1;" d="M 99.144531 22.449219 C 98.042969 21.9375 97.40625 20.679688 97.152344 20.070312 C 97.921875 20.320312 99.617188 20.335938 100.035156 20.335938 C 100.480469 20.335938 102.375 20.316406 103.054688 20.019531 C 103.066406 20.527344 102.914062 21.785156 101.332031 22.425781 C 100.542969 22.746094 99.804688 22.753906 99.144531 22.449219 Z M 100.035156 19.46875 C 101.65625 19.46875 102.75 19.636719 103 19.773438 C 102.75 19.90625 101.65625 20.074219 100.035156 20.074219 C 98.410156 20.074219 97.316406 19.90625 97.066406 19.773438 C 97.316406 19.636719 98.410156 19.46875 100.035156 19.46875 Z M 103.300781 19.75 C 103.296875 19.746094 103.296875 19.746094 103.296875 19.742188 C 103.199219 19.234375 100.570312 19.207031 100.035156 19.207031 C 99.496094 19.207031 96.847656 19.234375 96.769531 19.75 C 96.769531 19.753906 96.765625 19.757812 96.765625 19.765625 C 96.765625 19.765625 96.765625 19.769531 96.765625 19.773438 C 96.765625 19.785156 96.769531 19.792969 96.769531 19.804688 C 96.773438 19.808594 96.769531 19.808594 96.773438 19.808594 C 96.773438 19.8125 96.773438 19.8125 96.773438 19.8125 C 96.773438 19.816406 96.777344 19.824219 96.777344 19.828125 C 96.847656 20.046875 97.515625 21.980469 99.03125 22.683594 C 99.390625 22.851562 99.769531 22.933594 100.164062 22.933594 C 100.570312 22.933594 100.996094 22.84375 101.433594 22.667969 C 103.636719 21.773438 103.300781 19.769531 103.300781 19.75 "/><path style=" stroke:none;fill-rule:nonzero;fill:#000000;fill-opacity:1;" d="M 92.230469 22.332031 C 90.59375 22.46875 89.472656 22.394531 89.207031 22.28125 C 89.449219 22.128906 90.542969 21.867188 92.179688 21.730469 C 93.816406 21.59375 94.9375 21.667969 95.203125 21.78125 C 94.960938 21.933594 93.871094 22.195312 92.230469 22.332031 Z M 93.082031 24.816406 C 92.460938 25.117188 91.773438 25.121094 91.035156 24.820312 C 89.570312 24.230469 89.257812 23.0625 89.1875 22.550781 C 89.347656 22.597656 89.597656 22.632812 89.984375 22.65625 C 90.167969 22.664062 90.367188 22.667969 90.582031 22.667969 C 91.082031 22.667969 91.65625 22.644531 92.253906 22.59375 C 92.671875 22.558594 94.367188 22.398438 95.128906 22.089844 C 94.882812 22.773438 94.238281 24.25 93.082031 24.816406 Z M 95.5 21.738281 C 95.394531 21.226562 92.703125 21.425781 92.15625 21.46875 C 91.304688 21.542969 90.507812 21.652344 89.910156 21.785156 C 89.03125 21.984375 88.902344 22.144531 88.90625 22.292969 C 88.90625 22.3125 88.894531 24.238281 90.933594 25.0625 C 91.335938 25.226562 91.726562 25.304688 92.097656 25.304688 C 92.480469 25.304688 92.851562 25.222656 93.199219 25.050781 C 94.773438 24.28125 95.429688 22.050781 95.496094 21.816406 C 95.503906 21.796875 95.507812 21.777344 95.503906 21.753906 C 95.503906 21.753906 95.503906 21.753906 95.503906 21.75 C 95.503906 21.746094 95.5 21.742188 95.5 21.738281 "/></g></svg>