<svg xmlns="http://www.w3.org/2000/svg" xmlns:xlink="http://www.w3.org/1999/xlink" width="157" zoomAndPan="magnify" viewBox="0 0 117.75 37.5" height="50" preserveAspectRatio="xMidYMid meet" version="1.0"><defs><g/><clipPath id="03dac4e325"><path d="M 11 0 L 92 0 L 92 37.007812 L 11 37.007812 Z M 11 0 " clip-rule="nonzero"/></clipPath><clipPath id="9a6912aaf7"><path d="M 0.546875 3 L 42 3 L 42 31 L 0.546875 31 Z M 0.546875 3 " clip-rule="nonzero"/></clipPath><clipPath id="e6c0e29f6f"><rect x="0" width="81" y="0" height="38"/></clipPath><clipPath id="0fd06a68b8"><path d="M 85.320312 30 L 91 30 L 91 32.945312 L 85.320312 32.945312 Z M 85.320312 30 " clip-rule="nonzero"/></clipPath><clipPath id="5acc0aa646"><path d="M 85.320312 14.441406 L 107.527344 14.441406 L 107.527344 32.945312 L 85.320312 32.945312 Z M 85.320312 14.441406 " clip-rule="nonzero"/></clipPath></defs><g clip-path="url(#03dac4e325)"><g transform="matrix(1, 0, 0, 1, 11, -0.000000000000001478)"><g clip-path="url(#e6c0e29f6f)"><g clip-path="url(#9a6912aaf7)"><g fill="#ffffff" fill-opacity="1"><g transform="translate(3.985612, 26.010155)"><g><path d="M 36.453125 -20.359375 C 36.578125 -20.265625 36.6875 -20.148438 36.78125 -20.015625 C 36.882812 -19.890625 36.953125 -19.738281 36.984375 -19.5625 C 37.015625 -19.363281 36.941406 -19.210938 36.765625 -19.109375 C 36.660156 -19.054688 36.554688 -19.046875 36.453125 -19.078125 C 36.359375 -19.117188 36.289062 -19.195312 36.25 -19.3125 C 36.132812 -19.625 35.960938 -19.867188 35.734375 -20.046875 C 35.515625 -20.222656 35.269531 -20.378906 35 -20.515625 C 34.40625 -20.828125 33.789062 -21.082031 33.15625 -21.28125 C 32.53125 -21.476562 31.894531 -21.648438 31.25 -21.796875 C 30.1875 -22.015625 28.765625 -22.160156 26.984375 -22.234375 C 25.210938 -22.304688 23.238281 -22.28125 21.0625 -22.15625 C 18.882812 -22.03125 16.65625 -21.796875 14.375 -21.453125 C 12.09375 -21.109375 9.90625 -20.632812 7.8125 -20.03125 C 5.726562 -19.425781 3.894531 -18.671875 2.3125 -17.765625 C 0.738281 -16.867188 -0.4375 -15.8125 -1.21875 -14.59375 C -1.863281 -13.53125 -1.992188 -12.40625 -1.609375 -11.21875 C -1.316406 -10.40625 -0.910156 -9.671875 -0.390625 -9.015625 C 0.398438 -8.015625 1.269531 -7.101562 2.21875 -6.28125 C 3.03125 -5.550781 3.84375 -4.816406 4.65625 -4.078125 C 5.445312 -3.367188 6.242188 -2.65625 7.046875 -1.9375 C 7.941406 -1.113281 8.816406 -0.285156 9.671875 0.546875 C 9.753906 0.628906 9.835938 0.707031 9.921875 0.78125 C 10.390625 1.21875 10.800781 1.695312 11.15625 2.21875 C 11.507812 2.820312 11.570312 3.289062 11.34375 3.625 C 11.125 3.957031 10.703125 4.179688 10.078125 4.296875 C 9.453125 4.410156 8.722656 4.445312 7.890625 4.40625 C 7.066406 4.363281 6.234375 4.257812 5.390625 4.09375 C 4.554688 3.9375 3.8125 3.742188 3.15625 3.515625 C 2.507812 3.285156 2.050781 3.050781 1.78125 2.8125 C 1.25 2.3125 1.210938 1.785156 1.671875 1.234375 C 2.179688 0.660156 2.796875 0.25 3.515625 0 C 4.566406 -0.40625 5.628906 -0.441406 6.703125 -0.109375 C 6.910156 -0.0351562 7.109375 0.0625 7.296875 0.1875 C 7.316406 0.195312 7.332031 0.207031 7.34375 0.21875 C 7.394531 0.25 7.429688 0.289062 7.453125 0.34375 C 7.472656 0.40625 7.460938 0.46875 7.421875 0.53125 C 7.335938 0.632812 7.234375 0.664062 7.109375 0.625 C 6.992188 0.582031 6.882812 0.53125 6.78125 0.46875 C 6.039062 0.101562 5.273438 0.0234375 4.484375 0.234375 C 3.703125 0.453125 3.039062 0.882812 2.5 1.53125 C 2.257812 1.832031 2.242188 2.097656 2.453125 2.328125 C 2.671875 2.566406 3 2.765625 3.4375 2.921875 C 3.875 3.085938 4.3125 3.21875 4.75 3.3125 C 5.1875 3.40625 5.515625 3.46875 5.734375 3.5 C 5.773438 3.5 5.804688 3.503906 5.828125 3.515625 C 5.867188 3.515625 5.921875 3.519531 5.984375 3.53125 C 6.253906 3.59375 6.628906 3.65625 7.109375 3.71875 C 7.597656 3.789062 8.097656 3.835938 8.609375 3.859375 C 9.117188 3.890625 9.554688 3.859375 9.921875 3.765625 C 10.296875 3.671875 10.503906 3.488281 10.546875 3.21875 C 10.597656 2.945312 10.394531 2.550781 9.9375 2.03125 C 9.445312 1.46875 8.929688 0.921875 8.390625 0.390625 C 7.046875 -0.910156 5.664062 -2.171875 4.25 -3.390625 C 3.75 -3.847656 3.242188 -4.304688 2.734375 -4.765625 C 1.878906 -5.523438 1.046875 -6.304688 0.234375 -7.109375 C -0.523438 -7.835938 -1.191406 -8.644531 -1.765625 -9.53125 C -2.179688 -10.164062 -2.472656 -10.851562 -2.640625 -11.59375 C -2.890625 -12.800781 -2.664062 -13.921875 -1.96875 -14.953125 C -1.207031 -16.097656 -0.101562 -17.113281 1.34375 -18 C 2.789062 -18.882812 4.46875 -19.640625 6.375 -20.265625 C 8.289062 -20.890625 10.328125 -21.394531 12.484375 -21.78125 C 14.648438 -22.164062 16.832031 -22.4375 19.03125 -22.59375 C 21.238281 -22.757812 23.351562 -22.816406 25.375 -22.765625 C 27.394531 -22.722656 29.222656 -22.570312 30.859375 -22.3125 C 32.503906 -22.0625 33.851562 -21.710938 34.90625 -21.265625 C 35.457031 -21.046875 35.972656 -20.742188 36.453125 -20.359375 Z M 36.453125 -20.359375 "/></g></g></g></g><g fill="#ffffff" fill-opacity="1"><g transform="translate(14.388159, 26.010155)"><g><path d="M 7.375 -3.53125 C 7.539062 -3.632812 7.671875 -3.660156 7.765625 -3.609375 C 7.859375 -3.554688 7.820312 -3.410156 7.65625 -3.171875 C 7.445312 -2.898438 7.078125 -2.601562 6.546875 -2.28125 C 6.015625 -1.96875 5.539062 -1.832031 5.125 -1.875 C 4.71875 -1.914062 4.597656 -2.21875 4.765625 -2.78125 C 4.941406 -3.34375 5.035156 -3.65625 5.046875 -3.71875 C 5.066406 -3.789062 5.054688 -3.832031 5.015625 -3.84375 C 4.972656 -3.851562 4.878906 -3.804688 4.734375 -3.703125 C 4.304688 -3.410156 3.894531 -3.101562 3.5 -2.78125 C 3.320312 -2.65625 3.148438 -2.519531 2.984375 -2.375 C 2.878906 -2.28125 2.769531 -2.1875 2.65625 -2.09375 C 2.65625 -2.09375 2.648438 -2.085938 2.640625 -2.078125 C 2.515625 -1.953125 2.363281 -1.867188 2.1875 -1.828125 C 2.101562 -1.804688 2.015625 -1.796875 1.921875 -1.796875 C 1.835938 -1.804688 1.765625 -1.84375 1.703125 -1.90625 C 1.640625 -1.976562 1.613281 -2.050781 1.625 -2.125 C 1.644531 -2.207031 1.703125 -2.320312 1.796875 -2.46875 C 1.898438 -2.625 2.007812 -2.796875 2.125 -2.984375 C 2.25 -3.171875 2.316406 -3.285156 2.328125 -3.328125 C 2.347656 -3.367188 2.34375 -3.410156 2.3125 -3.453125 C 2.28125 -3.492188 2.242188 -3.503906 2.203125 -3.484375 C 2.160156 -3.472656 2.007812 -3.375 1.75 -3.1875 C 1.5 -3.007812 1.148438 -2.75 0.703125 -2.40625 C 0.492188 -2.257812 0.289062 -2.101562 0.09375 -1.9375 C 0.0390625 -1.882812 -0.015625 -1.835938 -0.078125 -1.796875 C -0.222656 -1.671875 -0.382812 -1.601562 -0.5625 -1.59375 C -0.6875 -1.582031 -0.78125 -1.609375 -0.84375 -1.671875 C -0.90625 -1.742188 -0.914062 -1.835938 -0.875 -1.953125 C -0.84375 -2.035156 -0.804688 -2.113281 -0.765625 -2.1875 C -0.742188 -2.21875 -0.726562 -2.25 -0.71875 -2.28125 C -0.34375 -3.03125 0.0234375 -3.785156 0.390625 -4.546875 C 0.398438 -4.566406 0.410156 -4.59375 0.421875 -4.625 C 0.460938 -4.707031 0.503906 -4.785156 0.546875 -4.859375 C 0.660156 -4.972656 0.796875 -5.007812 0.953125 -4.96875 C 1.128906 -4.914062 1.195312 -4.816406 1.15625 -4.671875 C 1.0625 -4.429688 0.976562 -4.195312 0.90625 -3.96875 C 0.863281 -3.863281 0.820312 -3.757812 0.78125 -3.65625 C 0.707031 -3.46875 0.679688 -3.347656 0.703125 -3.296875 C 0.734375 -3.242188 0.851562 -3.28125 1.0625 -3.40625 C 1.195312 -3.5 1.332031 -3.59375 1.46875 -3.6875 C 1.632812 -3.800781 1.796875 -3.90625 1.953125 -4 C 2.191406 -4.144531 2.4375 -4.269531 2.6875 -4.375 C 2.8125 -4.425781 2.9375 -4.460938 3.0625 -4.484375 C 3.195312 -4.515625 3.320312 -4.488281 3.4375 -4.40625 C 3.519531 -4.332031 3.550781 -4.25 3.53125 -4.15625 C 3.519531 -4.070312 3.5 -3.988281 3.46875 -3.90625 C 3.394531 -3.75 3.363281 -3.648438 3.375 -3.609375 C 3.394531 -3.566406 3.429688 -3.554688 3.484375 -3.578125 C 3.546875 -3.609375 3.65625 -3.671875 3.8125 -3.765625 C 3.96875 -3.859375 4.132812 -3.960938 4.3125 -4.078125 C 4.539062 -4.222656 4.78125 -4.363281 5.03125 -4.5 C 5.238281 -4.632812 5.457031 -4.71875 5.6875 -4.75 C 6.019531 -4.769531 6.15625 -4.632812 6.09375 -4.34375 C 6.03125 -4.0625 5.914062 -3.722656 5.75 -3.328125 C 5.582031 -2.941406 5.566406 -2.703125 5.703125 -2.609375 C 5.835938 -2.523438 6.132812 -2.644531 6.59375 -2.96875 C 7.050781 -3.300781 7.3125 -3.488281 7.375 -3.53125 Z M 7.375 -3.53125 "/></g></g></g><g fill="#ffffff" fill-opacity="1"><g transform="translate(21.854845, 26.010155)"><g><path d="M 2.796875 -2.96875 C 2.546875 -2.675781 2.25 -2.40625 1.90625 -2.15625 C 1.5625 -1.90625 1.171875 -1.734375 0.734375 -1.640625 C 0.304688 -1.554688 -0.0234375 -1.585938 -0.265625 -1.734375 C -0.503906 -1.890625 -0.550781 -2.226562 -0.40625 -2.75 C -0.21875 -3.28125 0.0390625 -3.789062 0.375 -4.28125 C 0.445312 -4.382812 0.554688 -4.457031 0.703125 -4.5 C 0.804688 -4.519531 0.894531 -4.5 0.96875 -4.4375 C 1.050781 -4.382812 1.082031 -4.3125 1.0625 -4.21875 C 0.988281 -4.050781 0.910156 -3.878906 0.828125 -3.703125 C 0.742188 -3.535156 0.6875 -3.425781 0.65625 -3.375 C 0.488281 -3.070312 0.375 -2.757812 0.3125 -2.4375 C 0.3125 -2.25 0.5625 -2.234375 1.0625 -2.390625 C 1.570312 -2.554688 2.0625 -2.859375 2.53125 -3.296875 C 3.007812 -3.742188 3.238281 -3.875 3.21875 -3.6875 C 3.195312 -3.507812 3.054688 -3.269531 2.796875 -2.96875 Z M 1.578125 -5.328125 C 1.546875 -5.316406 1.492188 -5.296875 1.421875 -5.265625 C 1.347656 -5.242188 1.269531 -5.222656 1.1875 -5.203125 C 1.113281 -5.191406 1.050781 -5.207031 1 -5.25 C 0.957031 -5.289062 0.957031 -5.363281 1 -5.46875 C 1.070312 -5.664062 1.148438 -5.835938 1.234375 -5.984375 C 1.316406 -6.140625 1.421875 -6.304688 1.546875 -6.484375 C 1.628906 -6.566406 1.71875 -6.609375 1.8125 -6.609375 C 1.914062 -6.617188 2 -6.59375 2.0625 -6.53125 C 2.132812 -6.476562 2.15625 -6.398438 2.125 -6.296875 C 2.019531 -5.921875 1.835938 -5.597656 1.578125 -5.328125 Z M 1.578125 -5.328125 "/></g></g></g><g fill="#ffffff" fill-opacity="1"><g transform="translate(24.607215, 26.010155)"><g><path d="M 3.421875 -3.359375 C 3.578125 -3.515625 3.703125 -3.601562 3.796875 -3.625 C 3.898438 -3.644531 3.96875 -3.628906 4 -3.578125 C 4.03125 -3.523438 4.007812 -3.453125 3.9375 -3.359375 C 3.53125 -2.867188 3.066406 -2.441406 2.546875 -2.078125 C 2.035156 -1.710938 1.507812 -1.5 0.96875 -1.4375 C 0.425781 -1.382812 0.0976562 -1.679688 -0.015625 -2.328125 C -0.0976562 -2.972656 0.289062 -4.285156 1.15625 -6.265625 C 2.019531 -8.253906 2.707031 -9.878906 3.21875 -11.140625 C 3.257812 -11.253906 3.320312 -11.351562 3.40625 -11.4375 C 3.519531 -11.550781 3.648438 -11.578125 3.796875 -11.515625 C 3.847656 -11.492188 3.898438 -11.457031 3.953125 -11.40625 C 4.003906 -11.351562 4.023438 -11.257812 4.015625 -11.125 C 1.785156 -5.851562 0.703125 -2.984375 0.765625 -2.515625 C 0.835938 -2.054688 1.132812 -1.941406 1.65625 -2.171875 C 2.1875 -2.410156 2.59375 -2.648438 2.875 -2.890625 C 3.164062 -3.128906 3.347656 -3.285156 3.421875 -3.359375 Z M 3.421875 -3.359375 "/></g></g></g><g fill="#ffffff" fill-opacity="1"><g transform="translate(28.128843, 26.010155)"><g><path d="M 2.796875 -2.96875 C 2.546875 -2.675781 2.25 -2.40625 1.90625 -2.15625 C 1.5625 -1.90625 1.171875 -1.734375 0.734375 -1.640625 C 0.304688 -1.554688 -0.0234375 -1.585938 -0.265625 -1.734375 C -0.503906 -1.890625 -0.550781 -2.226562 -0.40625 -2.75 C -0.21875 -3.28125 0.0390625 -3.789062 0.375 -4.28125 C 0.445312 -4.382812 0.554688 -4.457031 0.703125 -4.5 C 0.804688 -4.519531 0.894531 -4.5 0.96875 -4.4375 C 1.050781 -4.382812 1.082031 -4.3125 1.0625 -4.21875 C 0.988281 -4.050781 0.910156 -3.878906 0.828125 -3.703125 C 0.742188 -3.535156 0.6875 -3.425781 0.65625 -3.375 C 0.488281 -3.070312 0.375 -2.757812 0.3125 -2.4375 C 0.3125 -2.25 0.5625 -2.234375 1.0625 -2.390625 C 1.570312 -2.554688 2.0625 -2.859375 2.53125 -3.296875 C 3.007812 -3.742188 3.238281 -3.875 3.21875 -3.6875 C 3.195312 -3.507812 3.054688 -3.269531 2.796875 -2.96875 Z M 1.578125 -5.328125 C 1.546875 -5.316406 1.492188 -5.296875 1.421875 -5.265625 C 1.347656 -5.242188 1.269531 -5.222656 1.1875 -5.203125 C 1.113281 -5.191406 1.050781 -5.207031 1 -5.25 C 0.957031 -5.289062 0.957031 -5.363281 1 -5.46875 C 1.070312 -5.664062 1.148438 -5.835938 1.234375 -5.984375 C 1.316406 -6.140625 1.421875 -6.304688 1.546875 -6.484375 C 1.628906 -6.566406 1.71875 -6.609375 1.8125 -6.609375 C 1.914062 -6.617188 2 -6.59375 2.0625 -6.53125 C 2.132812 -6.476562 2.15625 -6.398438 2.125 -6.296875 C 2.019531 -5.921875 1.835938 -5.597656 1.578125 -5.328125 Z M 1.578125 -5.328125 "/></g></g></g><g fill="#ffffff" fill-opacity="1"><g transform="translate(30.881213, 26.010155)"><g><path d="M 5.59375 -3.515625 C 5.664062 -3.421875 5.566406 -3.25 5.296875 -3 C 5.035156 -2.75 4.753906 -2.539062 4.453125 -2.375 C 4.160156 -2.207031 3.820312 -2.039062 3.4375 -1.875 C 3.175781 -1.757812 2.898438 -1.71875 2.609375 -1.75 C 2.316406 -1.789062 2.171875 -1.96875 2.171875 -2.28125 C 2.171875 -2.601562 2.242188 -2.914062 2.390625 -3.21875 C 2.535156 -3.539062 2.566406 -3.707031 2.484375 -3.71875 C 2.398438 -3.726562 2.226562 -3.648438 1.96875 -3.484375 C 1.300781 -3.046875 0.675781 -2.539062 0.09375 -1.96875 C -0.0625 -1.78125 -0.257812 -1.675781 -0.5 -1.65625 C -0.613281 -1.65625 -0.703125 -1.691406 -0.765625 -1.765625 C -0.835938 -1.847656 -0.847656 -1.9375 -0.796875 -2.03125 C -0.390625 -2.789062 0.0234375 -3.546875 0.453125 -4.296875 C 0.546875 -4.453125 0.6875 -4.550781 0.875 -4.59375 C 0.957031 -4.601562 1.03125 -4.578125 1.09375 -4.515625 C 1.164062 -4.453125 1.203125 -4.378906 1.203125 -4.296875 C 1.191406 -4.222656 1.160156 -4.132812 1.109375 -4.03125 C 1.085938 -3.96875 1.066406 -3.90625 1.046875 -3.84375 C 1.023438 -3.789062 1.015625 -3.742188 1.015625 -3.703125 C 1.023438 -3.671875 1.054688 -3.660156 1.109375 -3.671875 C 1.179688 -3.710938 1.25 -3.753906 1.3125 -3.796875 C 1.5 -3.898438 1.671875 -4 1.828125 -4.09375 C 1.972656 -4.175781 2.125 -4.25 2.28125 -4.3125 C 2.445312 -4.382812 2.617188 -4.429688 2.796875 -4.453125 C 3.078125 -4.472656 3.273438 -4.410156 3.390625 -4.265625 C 3.515625 -4.117188 3.53125 -3.914062 3.4375 -3.65625 C 3.34375 -3.414062 3.242188 -3.179688 3.140625 -2.953125 C 3.015625 -2.734375 2.992188 -2.566406 3.078125 -2.453125 C 3.160156 -2.347656 3.550781 -2.476562 4.25 -2.84375 L 4.78125 -3.15625 C 5.28125 -3.476562 5.550781 -3.597656 5.59375 -3.515625 Z M 5.59375 -3.515625 "/></g></g></g><g fill="#ffffff" fill-opacity="1"><g transform="translate(36.054264, 26.010155)"><g><path d="M 6.234375 -3.78125 C 6.265625 -3.789062 6.300781 -3.789062 6.34375 -3.78125 C 6.394531 -3.769531 6.4375 -3.75 6.46875 -3.71875 C 6.488281 -3.664062 6.484375 -3.613281 6.453125 -3.5625 C 6.429688 -3.507812 6.390625 -3.46875 6.328125 -3.4375 C 5.898438 -3.238281 5.472656 -3.023438 5.046875 -2.796875 C 4.546875 -2.535156 4.039062 -2.28125 3.53125 -2.03125 C 3.457031 -2 3.382812 -1.960938 3.3125 -1.921875 C 3.195312 -1.859375 3.082031 -1.800781 2.96875 -1.75 C 2.707031 -1.625 2.535156 -1.425781 2.453125 -1.15625 C 2.222656 -0.519531 1.988281 0.113281 1.75 0.75 C 1.425781 1.59375 1.023438 2.394531 0.546875 3.15625 C 0.273438 3.59375 -0.0507812 3.976562 -0.4375 4.3125 C -0.882812 4.75 -1.40625 5.019531 -2 5.125 C -2.96875 5.320312 -3.90625 5.257812 -4.8125 4.9375 C -5.1875 4.8125 -5.503906 4.601562 -5.765625 4.3125 C -6.128906 3.914062 -6.148438 3.492188 -5.828125 3.046875 C -5.679688 2.859375 -5.515625 2.679688 -5.328125 2.515625 C -4.929688 2.148438 -4.5 1.828125 -4.03125 1.546875 C -2.363281 0.472656 -0.648438 -0.507812 1.109375 -1.40625 C 1.117188 -1.40625 1.125 -1.40625 1.125 -1.40625 C 1.300781 -1.5 1.484375 -1.597656 1.671875 -1.703125 C 1.691406 -1.722656 1.726562 -1.769531 1.78125 -1.84375 C 1.832031 -1.925781 1.867188 -2.003906 1.890625 -2.078125 C 1.921875 -2.160156 1.914062 -2.21875 1.875 -2.25 C 1.84375 -2.289062 1.75 -2.273438 1.59375 -2.203125 C 1.53125 -2.179688 1.472656 -2.15625 1.421875 -2.125 C 1.285156 -2.0625 1.148438 -2.003906 1.015625 -1.953125 C 0.203125 -1.753906 -0.203125 -2.0625 -0.203125 -2.875 C -0.179688 -3.363281 -0.0351562 -3.804688 0.234375 -4.203125 C 0.515625 -4.597656 0.867188 -4.90625 1.296875 -5.125 C 1.722656 -5.351562 2.1875 -5.441406 2.6875 -5.390625 C 2.738281 -5.390625 2.789062 -5.378906 2.84375 -5.359375 C 2.976562 -5.335938 3.113281 -5.328125 3.25 -5.328125 C 3.394531 -5.328125 3.539062 -5.359375 3.6875 -5.421875 C 3.84375 -5.484375 3.957031 -5.46875 4.03125 -5.375 C 4.113281 -5.28125 4.128906 -5.15625 4.078125 -5 C 3.941406 -4.707031 3.804688 -4.410156 3.671875 -4.109375 C 3.578125 -3.921875 3.488281 -3.726562 3.40625 -3.53125 C 3.3125 -3.320312 3.21875 -3.113281 3.125 -2.90625 C 3 -2.625 2.976562 -2.472656 3.0625 -2.453125 C 3.15625 -2.441406 3.3125 -2.492188 3.53125 -2.609375 C 3.5625 -2.617188 3.59375 -2.625 3.625 -2.625 C 4.019531 -2.820312 4.414062 -3.007812 4.8125 -3.1875 C 5.09375 -3.3125 5.375 -3.441406 5.65625 -3.578125 C 5.84375 -3.660156 6.035156 -3.726562 6.234375 -3.78125 Z M 1.21875 0 C 1.363281 -0.40625 1.425781 -0.671875 1.40625 -0.796875 C 1.382812 -0.929688 1.289062 -0.96875 1.125 -0.90625 C 0.96875 -0.84375 0.757812 -0.734375 0.5 -0.578125 C 0.332031 -0.472656 0.148438 -0.367188 -0.046875 -0.265625 C -1.234375 0.378906 -2.390625 1.070312 -3.515625 1.8125 C -4.015625 2.101562 -4.460938 2.453125 -4.859375 2.859375 C -5.265625 3.304688 -5.25 3.703125 -4.8125 4.046875 C -4.550781 4.253906 -4.257812 4.394531 -3.9375 4.46875 C -3.625 4.550781 -3.28125 4.59375 -2.90625 4.59375 C -2.457031 4.632812 -2.039062 4.554688 -1.65625 4.359375 C -1.28125 4.160156 -0.925781 3.863281 -0.59375 3.46875 C -0.40625 3.207031 -0.222656 2.9375 -0.046875 2.65625 C 0.472656 1.8125 0.894531 0.925781 1.21875 0 Z M 0.75 -2.484375 C 0.875 -2.429688 1.050781 -2.476562 1.28125 -2.625 C 1.507812 -2.769531 1.742188 -2.960938 1.984375 -3.203125 C 2.234375 -3.453125 2.429688 -3.707031 2.578125 -3.96875 C 2.722656 -4.226562 2.757812 -4.445312 2.6875 -4.625 C 2.664062 -4.675781 2.632812 -4.722656 2.59375 -4.765625 C 2.519531 -4.847656 2.4375 -4.890625 2.34375 -4.890625 C 2.25 -4.890625 2.148438 -4.875 2.046875 -4.84375 C 1.703125 -4.707031 1.398438 -4.472656 1.140625 -4.140625 C 0.878906 -3.804688 0.703125 -3.476562 0.609375 -3.15625 C 0.523438 -2.832031 0.570312 -2.609375 0.75 -2.484375 Z M 0.75 -2.484375 "/></g></g></g><g fill="#ffffff" fill-opacity="1"><g transform="translate(42.081248, 26.010155)"><g><path d="M 36.453125 -20.359375 C 36.578125 -20.265625 36.6875 -20.148438 36.78125 -20.015625 C 36.882812 -19.890625 36.953125 -19.738281 36.984375 -19.5625 C 37.015625 -19.363281 36.941406 -19.210938 36.765625 -19.109375 C 36.660156 -19.054688 36.554688 -19.046875 36.453125 -19.078125 C 36.359375 -19.117188 36.289062 -19.195312 36.25 -19.3125 C 36.132812 -19.625 35.960938 -19.867188 35.734375 -20.046875 C 35.515625 -20.222656 35.269531 -20.378906 35 -20.515625 C 34.40625 -20.828125 33.789062 -21.082031 33.15625 -21.28125 C 32.53125 -21.476562 31.894531 -21.648438 31.25 -21.796875 C 30.1875 -22.015625 28.765625 -22.160156 26.984375 -22.234375 C 25.210938 -22.304688 23.238281 -22.28125 21.0625 -22.15625 C 18.882812 -22.03125 16.65625 -21.796875 14.375 -21.453125 C 12.09375 -21.109375 9.90625 -20.632812 7.8125 -20.03125 C 5.726562 -19.425781 3.894531 -18.671875 2.3125 -17.765625 C 0.738281 -16.867188 -0.4375 -15.8125 -1.21875 -14.59375 C -1.863281 -13.53125 -1.992188 -12.40625 -1.609375 -11.21875 C -1.316406 -10.40625 -0.910156 -9.671875 -0.390625 -9.015625 C 0.398438 -8.015625 1.269531 -7.101562 2.21875 -6.28125 C 3.03125 -5.550781 3.84375 -4.816406 4.65625 -4.078125 C 5.445312 -3.367188 6.242188 -2.65625 7.046875 -1.9375 C 7.941406 -1.113281 8.816406 -0.285156 9.671875 0.546875 C 9.753906 0.628906 9.835938 0.707031 9.921875 0.78125 C 10.390625 1.21875 10.800781 1.695312 11.15625 2.21875 C 11.507812 2.820312 11.570312 3.289062 11.34375 3.625 C 11.125 3.957031 10.703125 4.179688 10.078125 4.296875 C 9.453125 4.410156 8.722656 4.445312 7.890625 4.40625 C 7.066406 4.363281 6.234375 4.257812 5.390625 4.09375 C 4.554688 3.9375 3.8125 3.742188 3.15625 3.515625 C 2.507812 3.285156 2.050781 3.050781 1.78125 2.8125 C 1.25 2.3125 1.210938 1.785156 1.671875 1.234375 C 2.179688 0.660156 2.796875 0.25 3.515625 0 C 4.566406 -0.40625 5.628906 -0.441406 6.703125 -0.109375 C 6.910156 -0.0351562 7.109375 0.0625 7.296875 0.1875 C 7.316406 0.195312 7.332031 0.207031 7.34375 0.21875 C 7.394531 0.25 7.429688 0.289062 7.453125 0.34375 C 7.472656 0.40625 7.460938 0.46875 7.421875 0.53125 C 7.335938 0.632812 7.234375 0.664062 7.109375 0.625 C 6.992188 0.582031 6.882812 0.53125 6.78125 0.46875 C 6.039062 0.101562 5.273438 0.0234375 4.484375 0.234375 C 3.703125 0.453125 3.039062 0.882812 2.5 1.53125 C 2.257812 1.832031 2.242188 2.097656 2.453125 2.328125 C 2.671875 2.566406 3 2.765625 3.4375 2.921875 C 3.875 3.085938 4.3125 3.21875 4.75 3.3125 C 5.1875 3.40625 5.515625 3.46875 5.734375 3.5 C 5.773438 3.5 5.804688 3.503906 5.828125 3.515625 C 5.867188 3.515625 5.921875 3.519531 5.984375 3.53125 C 6.253906 3.59375 6.628906 3.65625 7.109375 3.71875 C 7.597656 3.789062 8.097656 3.835938 8.609375 3.859375 C 9.117188 3.890625 9.554688 3.859375 9.921875 3.765625 C 10.296875 3.671875 10.503906 3.488281 10.546875 3.21875 C 10.597656 2.945312 10.394531 2.550781 9.9375 2.03125 C 9.445312 1.46875 8.929688 0.921875 8.390625 0.390625 C 7.046875 -0.910156 5.664062 -2.171875 4.25 -3.390625 C 3.75 -3.847656 3.242188 -4.304688 2.734375 -4.765625 C 1.878906 -5.523438 1.046875 -6.304688 0.234375 -7.109375 C -0.523438 -7.835938 -1.191406 -8.644531 -1.765625 -9.53125 C -2.179688 -10.164062 -2.472656 -10.851562 -2.640625 -11.59375 C -2.890625 -12.800781 -2.664062 -13.921875 -1.96875 -14.953125 C -1.207031 -16.097656 -0.101562 -17.113281 1.34375 -18 C 2.789062 -18.882812 4.46875 -19.640625 6.375 -20.265625 C 8.289062 -20.890625 10.328125 -21.394531 12.484375 -21.78125 C 14.648438 -22.164062 16.832031 -22.4375 19.03125 -22.59375 C 21.238281 -22.757812 23.351562 -22.816406 25.375 -22.765625 C 27.394531 -22.722656 29.222656 -22.570312 30.859375 -22.3125 C 32.503906 -22.0625 33.851562 -21.710938 34.90625 -21.265625 C 35.457031 -21.046875 35.972656 -20.742188 36.453125 -20.359375 Z M 36.453125 -20.359375 "/></g></g></g><g fill="#ffffff" fill-opacity="1"><g transform="translate(52.483795, 26.010155)"><g><path d="M 5.625 -3.703125 C 5.519531 -3.660156 5.410156 -3.625 5.296875 -3.59375 C 5.265625 -3.582031 5.238281 -3.570312 5.21875 -3.5625 C 5.101562 -3.519531 4.988281 -3.476562 4.875 -3.4375 C 4.550781 -3.332031 4.222656 -3.222656 3.890625 -3.109375 C 3.640625 -3.035156 3.445312 -2.878906 3.3125 -2.640625 C 3.082031 -2.273438 2.789062 -1.988281 2.4375 -1.78125 C 2.09375 -1.570312 1.742188 -1.421875 1.390625 -1.328125 C 1.035156 -1.242188 0.71875 -1.191406 0.4375 -1.171875 C 0.164062 -1.148438 -0.0078125 -1.144531 -0.09375 -1.15625 C -0.101562 -1.15625 -0.113281 -1.15625 -0.125 -1.15625 C -0.238281 -1.082031 -0.351562 -0.941406 -0.46875 -0.734375 C -0.582031 -0.535156 -0.679688 -0.351562 -0.765625 -0.1875 C -0.785156 -0.144531 -0.796875 -0.109375 -0.796875 -0.078125 C -1.265625 0.859375 -1.726562 1.789062 -2.1875 2.71875 C -2.445312 3.238281 -2.707031 3.757812 -2.96875 4.28125 C -3.050781 4.457031 -3.148438 4.632812 -3.265625 4.8125 C -3.367188 4.9375 -3.5 4.960938 -3.65625 4.890625 C -3.75 4.804688 -3.769531 4.703125 -3.71875 4.578125 C -3.675781 4.441406 -3.625 4.300781 -3.5625 4.15625 C -2.75 2.25 -1.890625 0.359375 -0.984375 -1.515625 C -0.703125 -2.097656 -0.4375 -2.6875 -0.1875 -3.28125 C -0.0703125 -3.5625 0.046875 -3.847656 0.171875 -4.140625 C 0.179688 -4.171875 0.195312 -4.203125 0.21875 -4.234375 C 0.28125 -4.390625 0.351562 -4.539062 0.4375 -4.6875 C 0.476562 -4.738281 0.546875 -4.769531 0.640625 -4.78125 C 0.742188 -4.800781 0.835938 -4.789062 0.921875 -4.75 C 1.015625 -4.6875 1.0625 -4.59375 1.0625 -4.46875 C 1.0625 -4.40625 1.046875 -4.34375 1.015625 -4.28125 C 1.003906 -4.226562 0.992188 -4.175781 0.984375 -4.125 C 0.984375 -4.070312 1 -4.019531 1.03125 -3.96875 C 1.113281 -3.957031 1.179688 -3.96875 1.234375 -4 C 1.285156 -4.03125 1.335938 -4.066406 1.390625 -4.109375 C 1.441406 -4.148438 1.503906 -4.179688 1.578125 -4.203125 C 1.617188 -4.222656 1.660156 -4.242188 1.703125 -4.265625 C 1.929688 -4.367188 2.15625 -4.457031 2.375 -4.53125 C 2.664062 -4.625 2.953125 -4.601562 3.234375 -4.46875 C 3.359375 -4.394531 3.445312 -4.300781 3.5 -4.1875 C 3.5625 -4.082031 3.613281 -3.96875 3.65625 -3.84375 C 3.6875 -3.75 3.769531 -3.695312 3.90625 -3.6875 C 4.039062 -3.6875 4.191406 -3.707031 4.359375 -3.75 C 4.535156 -3.789062 4.695312 -3.832031 4.84375 -3.875 C 4.957031 -3.90625 5.039062 -3.925781 5.09375 -3.9375 C 5.238281 -3.96875 5.382812 -3.976562 5.53125 -3.96875 C 5.570312 -3.96875 5.609375 -3.957031 5.640625 -3.9375 C 5.671875 -3.925781 5.6875 -3.890625 5.6875 -3.828125 C 5.6875 -3.804688 5.679688 -3.78125 5.671875 -3.75 C 5.660156 -3.726562 5.644531 -3.710938 5.625 -3.703125 Z M 2.65625 -3.234375 C 2.75 -3.296875 2.804688 -3.394531 2.828125 -3.53125 C 2.847656 -3.675781 2.832031 -3.816406 2.78125 -3.953125 C 2.757812 -3.992188 2.726562 -4.019531 2.6875 -4.03125 C 2.644531 -4.050781 2.601562 -4.0625 2.5625 -4.0625 C 2.476562 -4.050781 2.394531 -4.023438 2.3125 -3.984375 C 1.445312 -3.546875 0.742188 -2.925781 0.203125 -2.125 C 0.0976562 -1.9375 0.109375 -1.851562 0.234375 -1.875 C 0.367188 -1.894531 0.566406 -1.972656 0.828125 -2.109375 C 1.085938 -2.253906 1.351562 -2.414062 1.625 -2.59375 C 1.90625 -2.769531 2.144531 -2.925781 2.34375 -3.0625 C 2.519531 -3.164062 2.625 -3.222656 2.65625 -3.234375 Z M 2.65625 -3.234375 "/></g></g></g><g fill="#ffffff" fill-opacity="1"><g transform="translate(57.685075, 26.010155)"><g><path d="M 5.109375 -3.59375 C 5.222656 -3.53125 5.234375 -3.378906 5.140625 -3.140625 C 5.003906 -2.953125 4.859375 -2.78125 4.703125 -2.625 C 4.546875 -2.476562 4.378906 -2.34375 4.203125 -2.21875 C 4.179688 -2.21875 4.171875 -2.210938 4.171875 -2.203125 C 4.054688 -2.117188 3.929688 -2.046875 3.796875 -1.984375 C 2.671875 -1.578125 2.09375 -1.816406 2.0625 -2.703125 C 1.613281 -2.304688 1.3125 -2.0625 1.15625 -1.96875 C 0.78125 -1.75 0.375 -1.648438 -0.0625 -1.671875 C -0.375 -1.691406 -0.585938 -1.789062 -0.703125 -1.96875 C -0.816406 -2.144531 -0.804688 -2.382812 -0.671875 -2.6875 C -0.460938 -3.15625 -0.171875 -3.578125 0.203125 -3.953125 C 0.648438 -4.367188 1.144531 -4.703125 1.6875 -4.953125 C 1.976562 -5.097656 2.285156 -5.148438 2.609375 -5.109375 C 2.929688 -5.097656 3.125 -4.921875 3.1875 -4.578125 C 3.21875 -4.472656 3.191406 -4.378906 3.109375 -4.296875 C 3.003906 -4.203125 2.882812 -4.179688 2.75 -4.234375 C 2.738281 -4.234375 2.722656 -4.234375 2.703125 -4.234375 C 2.691406 -4.242188 2.679688 -4.253906 2.671875 -4.265625 C 2.535156 -4.453125 2.394531 -4.53125 2.25 -4.5 C 2.113281 -4.46875 1.972656 -4.40625 1.828125 -4.3125 C 1.097656 -3.882812 0.554688 -3.296875 0.203125 -2.546875 C 0.179688 -2.503906 0.164062 -2.460938 0.15625 -2.421875 C 0.15625 -2.390625 0.171875 -2.359375 0.203125 -2.328125 C 0.285156 -2.304688 0.378906 -2.3125 0.484375 -2.34375 C 0.585938 -2.382812 0.691406 -2.441406 0.796875 -2.515625 C 0.898438 -2.597656 0.988281 -2.664062 1.0625 -2.71875 C 1.070312 -2.738281 1.078125 -2.75 1.078125 -2.75 C 1.421875 -3.03125 1.753906 -3.320312 2.078125 -3.625 C 2.222656 -3.78125 2.40625 -3.867188 2.625 -3.890625 C 2.9375 -3.890625 3.066406 -3.75 3.015625 -3.46875 C 2.984375 -3.363281 2.953125 -3.257812 2.921875 -3.15625 C 2.796875 -2.707031 2.789062 -2.445312 2.90625 -2.375 C 3.019531 -2.300781 3.191406 -2.300781 3.421875 -2.375 C 3.660156 -2.445312 3.894531 -2.59375 4.125 -2.8125 C 4.351562 -3.03125 4.546875 -3.226562 4.703125 -3.40625 C 4.867188 -3.59375 5.003906 -3.65625 5.109375 -3.59375 Z M 5.109375 -3.59375 "/></g></g></g><g fill="#ffffff" fill-opacity="1"><g transform="translate(62.364111, 26.010155)"><g><path d="M 5.09375 -3.671875 C 5.113281 -3.671875 5.140625 -3.664062 5.171875 -3.65625 C 5.203125 -3.644531 5.226562 -3.628906 5.25 -3.609375 C 5.3125 -3.546875 5.316406 -3.472656 5.265625 -3.390625 C 5.203125 -3.316406 5.140625 -3.257812 5.078125 -3.21875 C 4.710938 -2.875 4.3125 -2.59375 3.875 -2.375 C 3.175781 -2.019531 2.40625 -1.835938 1.5625 -1.828125 C 1.25 -1.816406 0.929688 -1.867188 0.609375 -1.984375 C 0.00390625 -2.210938 -0.238281 -2.644531 -0.125 -3.28125 C 0.0078125 -3.875 0.335938 -4.363281 0.859375 -4.75 C 1.390625 -5.132812 1.957031 -5.300781 2.5625 -5.25 C 2.675781 -5.238281 2.789062 -5.21875 2.90625 -5.1875 C 3.007812 -5.132812 3.085938 -5.066406 3.140625 -4.984375 C 3.191406 -4.910156 3.191406 -4.847656 3.140625 -4.796875 C 3.035156 -4.671875 2.910156 -4.640625 2.765625 -4.703125 C 2.546875 -4.796875 2.34375 -4.820312 2.15625 -4.78125 C 1.976562 -4.738281 1.796875 -4.640625 1.609375 -4.484375 C 1.429688 -4.347656 1.238281 -4.148438 1.03125 -3.890625 C 0.832031 -3.628906 0.703125 -3.363281 0.640625 -3.09375 C 0.585938 -2.832031 0.707031 -2.625 1 -2.46875 C 1.320312 -2.320312 1.65625 -2.285156 2 -2.359375 C 2.851562 -2.535156 3.648438 -2.859375 4.390625 -3.328125 C 4.453125 -3.359375 4.507812 -3.394531 4.5625 -3.4375 C 4.644531 -3.5 4.726562 -3.550781 4.8125 -3.59375 C 4.894531 -3.632812 4.988281 -3.660156 5.09375 -3.671875 Z M 5.09375 -3.671875 "/></g></g></g><g fill="#ffffff" fill-opacity="1"><g transform="translate(67.071376, 26.010155)"><g><path d="M 4.015625 -2.703125 C 3.742188 -2.441406 3.425781 -2.210938 3.0625 -2.015625 C 2.707031 -1.828125 2.40625 -1.703125 2.15625 -1.640625 C 1.914062 -1.585938 1.664062 -1.554688 1.40625 -1.546875 C 0.988281 -1.523438 0.609375 -1.582031 0.265625 -1.71875 C -0.304688 -1.945312 -0.503906 -2.382812 -0.328125 -3.03125 C -0.160156 -3.59375 0.171875 -4.03125 0.671875 -4.34375 C 1.171875 -4.65625 1.691406 -4.8125 2.234375 -4.8125 C 2.234375 -4.8125 2.238281 -4.8125 2.25 -4.8125 C 2.382812 -4.8125 2.507812 -4.800781 2.625 -4.78125 C 2.832031 -4.707031 2.960938 -4.582031 3.015625 -4.40625 C 3.078125 -4.238281 3.046875 -4.050781 2.921875 -3.84375 C 2.617188 -3.382812 2.207031 -3.128906 1.6875 -3.078125 C 1.34375 -3.046875 1.007812 -3.066406 0.6875 -3.140625 C 0.625 -3.140625 0.566406 -3.117188 0.515625 -3.078125 C 0.472656 -3.035156 0.445312 -2.984375 0.4375 -2.921875 C 0.34375 -2.523438 0.46875 -2.269531 0.8125 -2.15625 C 1.238281 -2.007812 1.679688 -2.007812 2.140625 -2.15625 C 2.660156 -2.320312 3.160156 -2.628906 3.640625 -3.078125 C 4.117188 -3.535156 4.394531 -3.75 4.46875 -3.71875 C 4.539062 -3.6875 4.5625 -3.597656 4.53125 -3.453125 C 4.46875 -3.222656 4.296875 -2.972656 4.015625 -2.703125 Z M 1.015625 -3.84375 C 0.984375 -3.8125 0.960938 -3.773438 0.953125 -3.734375 C 0.941406 -3.691406 0.957031 -3.65625 1 -3.625 C 1.164062 -3.53125 1.34375 -3.492188 1.53125 -3.515625 C 1.726562 -3.546875 1.894531 -3.617188 2.03125 -3.734375 C 2.164062 -3.859375 2.222656 -4.007812 2.203125 -4.1875 C 2.191406 -4.25 2.160156 -4.285156 2.109375 -4.296875 C 2.054688 -4.316406 2.003906 -4.320312 1.953125 -4.3125 C 1.597656 -4.25 1.285156 -4.09375 1.015625 -3.84375 Z M 1.015625 -3.84375 "/></g></g></g><g fill="#ffffff" fill-opacity="1"><g transform="translate(71.178758, 26.010155)"><g><path d="M 3.421875 -3.578125 C 2.671875 -3.296875 2.132812 -3.070312 1.8125 -2.90625 C 1.570312 -2.78125 1.429688 -2.675781 1.390625 -2.59375 C 1.359375 -2.519531 1.382812 -2.382812 1.46875 -2.1875 C 1.46875 -2.175781 1.476562 -2.160156 1.5 -2.140625 C 1.601562 -1.890625 1.660156 -1.628906 1.671875 -1.359375 C 1.710938 -0.816406 1.253906 -0.4375 0.296875 -0.21875 C -0.648438 -0.0078125 -1.285156 -0.00390625 -1.609375 -0.203125 C -1.929688 -0.410156 -2.03125 -0.664062 -1.90625 -0.96875 C -1.78125 -1.28125 -1.457031 -1.597656 -0.9375 -1.921875 C -0.414062 -2.242188 -0.0664062 -2.472656 0.109375 -2.609375 C 0.285156 -2.753906 0.335938 -2.910156 0.265625 -3.078125 C 0.242188 -3.140625 0.21875 -3.203125 0.1875 -3.265625 C 0.125 -3.410156 0.0625 -3.5625 0 -3.71875 C -0.125 -4 -0.175781 -4.273438 -0.15625 -4.546875 C -0.144531 -4.828125 -0.046875 -5.054688 0.140625 -5.234375 C 0.328125 -5.421875 0.617188 -5.523438 1.015625 -5.546875 C 1.234375 -5.546875 1.425781 -5.507812 1.59375 -5.4375 C 1.769531 -5.375 1.910156 -5.253906 2.015625 -5.078125 C 2.097656 -4.953125 2.070312 -4.835938 1.9375 -4.734375 C 1.851562 -4.660156 1.757812 -4.648438 1.65625 -4.703125 C 1.582031 -4.734375 1.515625 -4.769531 1.453125 -4.8125 C 1.453125 -4.832031 1.453125 -4.84375 1.453125 -4.84375 C 1.429688 -4.863281 1.410156 -4.878906 1.390625 -4.890625 C 1.359375 -4.941406 1.328125 -4.976562 1.296875 -5 C 1.171875 -5.082031 1.046875 -5.109375 0.921875 -5.078125 C 0.796875 -5.046875 0.703125 -4.953125 0.640625 -4.796875 C 0.597656 -4.671875 0.578125 -4.546875 0.578125 -4.421875 C 0.585938 -4.265625 0.625 -4.113281 0.6875 -3.96875 C 0.726562 -3.875 0.765625 -3.789062 0.796875 -3.71875 C 0.878906 -3.507812 0.945312 -3.363281 1 -3.28125 C 1.050781 -3.207031 1.113281 -3.175781 1.1875 -3.1875 C 1.257812 -3.207031 1.925781 -3.445312 3.1875 -3.90625 C 3.457031 -4 3.535156 -3.890625 3.421875 -3.578125 Z M 0.359375 -0.875 C 0.691406 -0.988281 0.832031 -1.210938 0.78125 -1.546875 C 0.78125 -1.566406 0.773438 -1.59375 0.765625 -1.625 C 0.742188 -1.800781 0.703125 -1.9375 0.640625 -2.03125 C 0.585938 -2.132812 0.460938 -2.132812 0.265625 -2.03125 C -0.222656 -1.75 -0.675781 -1.421875 -1.09375 -1.046875 C -1.113281 -1.015625 -1.140625 -0.984375 -1.171875 -0.953125 C -1.171875 -0.953125 -1.171875 -0.945312 -1.171875 -0.9375 C -1.203125 -0.894531 -1.207031 -0.847656 -1.1875 -0.796875 C -1.175781 -0.753906 -1.132812 -0.734375 -1.0625 -0.734375 C -0.582031 -0.660156 -0.109375 -0.707031 0.359375 -0.875 Z M 0.359375 -0.875 "/></g></g></g></g></g></g><path fill="#ffffff" d="M 89.609375 21.054688 C 89.625 21.0625 89.644531 21.066406 89.660156 21.066406 C 89.714844 21.066406 89.761719 21.035156 89.785156 20.988281 C 90.144531 20.179688 90.707031 19.308594 91.453125 18.390625 C 91.5 18.335938 91.492188 18.25 91.433594 18.203125 C 91.375 18.15625 91.292969 18.167969 91.246094 18.222656 C 90.484375 19.15625 89.910156 20.050781 89.539062 20.878906 C 89.511719 20.945312 89.539062 21.023438 89.609375 21.054688 " fill-opacity="1" fill-rule="nonzero"/><g clip-path="url(#0fd06a68b8)"><path fill="#ffffff" d="M 86.246094 30.984375 C 86.210938 30.921875 86.132812 30.898438 86.070312 30.929688 C 86.003906 30.964844 85.976562 31.042969 86.011719 31.109375 C 86.023438 31.132812 86.328125 31.695312 88.003906 32.378906 C 89.058594 32.804688 89.691406 32.886719 90.023438 32.886719 C 90.21875 32.886719 90.308594 32.859375 90.316406 32.855469 C 90.382812 32.832031 90.421875 32.757812 90.398438 32.691406 C 90.378906 32.621094 90.300781 32.582031 90.234375 32.601562 C 90.226562 32.605469 89.660156 32.761719 88.101562 32.128906 C 86.558594 31.503906 86.253906 31 86.246094 30.984375 " fill-opacity="1" fill-rule="nonzero"/></g><g clip-path="url(#5acc0aa646)"><path fill="#ffffff" d="M 104.902344 29.917969 C 104.371094 30.167969 103.699219 30.398438 103.148438 30.515625 C 102.429688 30.671875 102.210938 30.582031 102.191406 30.539062 C 102.144531 30.4375 102.578125 30.132812 102.835938 29.953125 C 103.492188 29.492188 104.304688 28.921875 103.972656 28.210938 L 102.027344 24.066406 C 101.894531 23.78125 101.609375 23.617188 101.347656 23.523438 C 101.449219 23.488281 101.535156 23.453125 101.59375 23.425781 L 102.023438 23.222656 C 102.082031 23.195312 102.164062 23.152344 102.257812 23.097656 C 102.164062 23.355469 102.105469 23.683594 102.238281 23.96875 L 104.183594 28.109375 C 104.515625 28.824219 105.476562 28.5625 106.25 28.351562 C 106.554688 28.269531 107.066406 28.128906 107.113281 28.230469 C 107.203125 28.425781 106.148438 29.335938 104.902344 29.917969 Z M 98.71875 23.097656 C 97.300781 22.277344 96.402344 20.171875 96.105469 17.007812 C 96.660156 17.003906 97.878906 16.464844 98.464844 16.191406 C 99.085938 15.898438 99.65625 15.59375 100.066406 15.328125 C 100.347656 15.148438 100.515625 15.015625 100.609375 14.910156 C 102.847656 17.15625 103.886719 19.191406 103.609375 20.804688 C 103.371094 22.195312 102.25 22.824219 101.910156 22.980469 L 101.480469 23.183594 C 101.140625 23.339844 99.945312 23.804688 98.71875 23.097656 Z M 93.777344 25.332031 C 92.589844 26.101562 91.371094 25.703125 91.023438 25.566406 L 90.804688 25.476562 L 90.582031 25.386719 C 90.238281 25.246094 89.085938 24.679688 88.773438 23.300781 C 88.410156 21.707031 89.339844 19.617188 91.457031 17.253906 C 91.554688 17.355469 91.730469 17.480469 92.019531 17.644531 C 92.445312 17.886719 93.03125 18.164062 93.664062 18.421875 C 94.300781 18.679688 94.914062 18.890625 95.390625 19.011719 C 95.699219 19.09375 95.90625 19.125 96.046875 19.125 C 96.050781 19.125 96.054688 19.125 96.0625 19.125 C 95.933594 22.292969 95.148438 24.4375 93.777344 25.332031 Z M 90.523438 26.476562 L 88.804688 30.714844 C 88.507812 31.445312 89.351562 31.972656 90.027344 32.394531 C 90.296875 32.5625 90.746094 32.84375 90.707031 32.945312 C 90.6875 32.992188 90.472656 33.089844 89.75 32.976562 C 89.191406 32.886719 88.507812 32.691406 87.964844 32.472656 C 87.421875 32.25 86.796875 31.914062 86.335938 31.589844 C 85.734375 31.167969 85.648438 30.945312 85.667969 30.902344 C 85.710938 30.800781 86.226562 30.914062 86.539062 30.980469 C 87.320312 31.148438 88.292969 31.359375 88.585938 30.628906 L 90.308594 26.386719 C 90.425781 26.097656 90.351562 25.773438 90.242188 25.519531 C 90.339844 25.570312 90.421875 25.605469 90.484375 25.632812 L 90.703125 25.722656 L 90.925781 25.8125 C 90.984375 25.835938 91.070312 25.867188 91.175781 25.898438 C 90.921875 26.003906 90.640625 26.183594 90.523438 26.476562 Z M 93.921875 17.792969 C 95.039062 18.246094 95.773438 18.660156 96.003906 18.859375 C 95.699219 18.84375 94.882812 18.628906 93.765625 18.175781 C 92.648438 17.722656 91.914062 17.308594 91.683594 17.105469 C 91.984375 17.125 92.804688 17.339844 93.921875 17.792969 Z M 98.175781 15.578125 C 99.269531 15.0625 100.070312 14.804688 100.375 14.773438 C 100.15625 14.984375 99.441406 15.4375 98.351562 15.949219 C 97.257812 16.460938 96.453125 16.71875 96.152344 16.753906 C 96.371094 16.542969 97.082031 16.089844 98.175781 15.578125 Z M 107.351562 28.117188 C 107.210938 27.816406 106.753906 27.9375 106.179688 28.097656 C 105.503906 28.28125 104.664062 28.507812 104.421875 27.996094 L 102.480469 23.855469 C 102.289062 23.449219 102.652344 22.875 102.707031 22.789062 C 103.175781 22.414062 103.710938 21.792969 103.871094 20.847656 C 104.171875 19.09375 103.097656 16.992188 100.675781 14.601562 C 100.601562 14.480469 100.398438 14.449219 99.753906 14.652344 C 99.285156 14.800781 98.683594 15.042969 98.0625 15.335938 C 97.441406 15.628906 96.871094 15.933594 96.457031 16.199219 C 95.886719 16.566406 95.78125 16.738281 95.824219 16.875 C 95.878906 17.472656 95.949219 18.035156 96.039062 18.554688 C 95.945312 18.488281 95.824219 18.410156 95.667969 18.324219 C 95.242188 18.082031 94.65625 17.804688 94.019531 17.546875 C 93.3125 17.257812 91.695312 16.648438 91.398438 16.925781 C 91.394531 16.929688 91.386719 16.933594 91.382812 16.9375 C 89.085938 19.457031 88.117188 21.621094 88.511719 23.359375 C 88.726562 24.296875 89.289062 24.886719 89.777344 25.238281 C 89.914062 25.417969 90.210938 25.925781 90.0625 26.289062 L 88.339844 30.527344 C 88.128906 31.050781 87.277344 30.867188 86.59375 30.71875 C 86.007812 30.59375 85.546875 30.492188 85.421875 30.800781 C 85.320312 31.050781 85.570312 31.378906 86.183594 31.808594 C 86.660156 32.140625 87.304688 32.492188 87.863281 32.71875 C 88.425781 32.945312 89.132812 33.144531 89.707031 33.238281 C 89.949219 33.277344 90.152344 33.296875 90.324219 33.296875 C 90.679688 33.296875 90.886719 33.210938 90.953125 33.046875 C 91.078125 32.738281 90.675781 32.488281 90.167969 32.171875 C 89.574219 31.800781 88.835938 31.339844 89.050781 30.816406 L 90.769531 26.574219 C 90.9375 26.15625 91.621094 26.035156 91.710938 26.019531 C 91.863281 26.042969 92.035156 26.058594 92.214844 26.058594 C 92.726562 26.058594 93.328125 25.941406 93.921875 25.554688 C 95.296875 24.660156 96.09375 22.703125 96.296875 19.734375 C 96.769531 21.515625 97.535156 22.71875 98.585938 23.328125 C 99.132812 23.640625 99.671875 23.742188 100.140625 23.742188 C 100.390625 23.742188 100.621094 23.714844 100.820312 23.671875 C 101.042969 23.695312 101.621094 23.824219 101.789062 24.179688 L 103.730469 28.320312 C 103.972656 28.832031 103.257812 29.332031 102.683594 29.734375 C 102.195312 30.078125 101.808594 30.347656 101.949219 30.648438 C 102.015625 30.796875 102.195312 30.867188 102.484375 30.867188 C 102.675781 30.867188 102.914062 30.835938 103.203125 30.777344 C 103.773438 30.652344 104.464844 30.417969 105.015625 30.160156 C 105.925781 29.730469 107.605469 28.65625 107.351562 28.117188 " fill-opacity="1" fill-rule="nonzero"/></g><path fill="#ffffff" d="M 102.597656 18.609375 C 102.621094 18.652344 102.667969 18.679688 102.714844 18.679688 C 102.734375 18.679688 102.757812 18.675781 102.773438 18.667969 C 102.839844 18.632812 102.867188 18.554688 102.835938 18.488281 C 102.410156 17.640625 101.753906 16.730469 100.886719 15.789062 C 100.835938 15.734375 100.753906 15.730469 100.699219 15.78125 C 100.644531 15.828125 100.640625 15.914062 100.691406 15.96875 C 101.542969 16.890625 102.183594 17.78125 102.597656 18.609375 " fill-opacity="1" fill-rule="nonzero"/><path fill="#ffffff" d="M 106.714844 28.28125 C 106.648438 28.25 106.570312 28.277344 106.539062 28.34375 C 106.535156 28.347656 106.269531 28.871094 104.746094 29.585938 C 103.222656 30.300781 102.648438 30.171875 102.644531 30.171875 C 102.574219 30.152344 102.503906 30.191406 102.480469 30.261719 C 102.460938 30.332031 102.503906 30.40625 102.574219 30.425781 C 102.582031 30.429688 102.644531 30.445312 102.773438 30.445312 C 103.070312 30.445312 103.71875 30.359375 104.859375 29.824219 C 106.496094 29.058594 106.769531 28.476562 106.78125 28.453125 C 106.8125 28.386719 106.78125 28.3125 106.714844 28.28125 " fill-opacity="1" fill-rule="nonzero"/><path fill="#ffffff" d="M 99.195312 22.601562 C 98.089844 22.082031 97.449219 20.796875 97.195312 20.179688 C 97.96875 20.433594 99.667969 20.449219 100.085938 20.449219 C 100.535156 20.449219 102.4375 20.429688 103.121094 20.128906 C 103.128906 20.648438 102.980469 21.925781 101.390625 22.582031 C 100.597656 22.90625 99.859375 22.914062 99.195312 22.601562 Z M 100.085938 19.566406 C 101.714844 19.566406 102.816406 19.738281 103.066406 19.875 C 102.816406 20.011719 101.714844 20.183594 100.085938 20.183594 C 98.457031 20.183594 97.359375 20.011719 97.109375 19.875 C 97.359375 19.738281 98.457031 19.566406 100.085938 19.566406 Z M 103.363281 19.851562 C 103.363281 19.851562 103.363281 19.847656 103.363281 19.84375 C 103.261719 19.328125 100.625 19.300781 100.085938 19.300781 C 99.546875 19.300781 96.890625 19.328125 96.8125 19.851562 C 96.808594 19.855469 96.808594 19.863281 96.808594 19.867188 C 96.808594 19.871094 96.808594 19.871094 96.808594 19.875 C 96.808594 19.886719 96.808594 19.898438 96.8125 19.910156 C 96.8125 19.910156 96.8125 19.914062 96.8125 19.914062 C 96.8125 19.914062 96.8125 19.917969 96.8125 19.917969 C 96.816406 19.921875 96.816406 19.925781 96.820312 19.933594 C 96.890625 20.15625 97.558594 22.125 99.082031 22.84375 C 99.441406 23.011719 99.824219 23.097656 100.21875 23.097656 C 100.628906 23.097656 101.054688 23.007812 101.492188 22.828125 C 103.703125 21.917969 103.367188 19.871094 103.363281 19.851562 " fill-opacity="1" fill-rule="nonzero"/><path fill="#ffffff" d="M 92.257812 22.484375 C 90.613281 22.625 89.488281 22.550781 89.21875 22.433594 C 89.464844 22.277344 90.558594 22.011719 92.203125 21.871094 C 93.847656 21.730469 94.972656 21.808594 95.238281 21.921875 C 94.996094 22.078125 93.902344 22.347656 92.257812 22.484375 Z M 93.109375 25.019531 C 92.488281 25.324219 91.796875 25.328125 91.054688 25.023438 C 89.585938 24.417969 89.269531 23.230469 89.203125 22.707031 C 89.363281 22.753906 89.613281 22.792969 90 22.8125 C 90.183594 22.824219 90.386719 22.828125 90.601562 22.828125 C 91.101562 22.828125 91.679688 22.800781 92.277344 22.75 C 92.699219 22.714844 94.398438 22.554688 95.164062 22.238281 C 94.917969 22.9375 94.269531 24.441406 93.109375 25.019531 Z M 95.539062 21.878906 C 95.429688 21.355469 92.726562 21.558594 92.179688 21.605469 C 91.328125 21.679688 90.527344 21.792969 89.925781 21.929688 C 89.046875 22.128906 88.914062 22.296875 88.917969 22.445312 C 88.917969 22.464844 88.90625 24.425781 90.953125 25.269531 C 91.355469 25.433594 91.75 25.515625 92.125 25.515625 C 92.507812 25.515625 92.878906 25.429688 93.226562 25.257812 C 94.808594 24.472656 95.46875 22.199219 95.535156 21.960938 C 95.539062 21.9375 95.542969 21.917969 95.542969 21.894531 C 95.542969 21.894531 95.542969 21.894531 95.539062 21.890625 C 95.539062 21.886719 95.539062 21.882812 95.539062 21.878906 " fill-opacity="1" fill-rule="nonzero"/></svg>