<svg xmlns="http://www.w3.org/2000/svg" xmlns:xlink="http://www.w3.org/1999/xlink" width="131" zoomAndPan="magnify" viewBox="0 0 98.25 98.249996" height="131" preserveAspectRatio="xMidYMid meet" version="1.2"><defs><clipPath id="4eb98b9fda"><path d="M 8.671875 17 L 87.570312 17 L 87.570312 86 L 8.671875 86 Z M 8.671875 17 "/></clipPath></defs><g id="83fed79321"><g clip-rule="nonzero" clip-path="url(#4eb98b9fda)"><path style=" stroke:none;fill-rule:nonzero;fill:#000000;fill-opacity:1;" d="M 84.519531 17.148438 L 50.628906 17.148438 C 48.949219 17.148438 47.585938 18.515625 47.585938 20.195312 L 47.585938 42.230469 L 46.570312 41.683594 C 45.320312 41.007812 43.832031 41.015625 42.582031 41.703125 L 40.835938 42.640625 L 40.835938 33.582031 C 40.835938 32.113281 39.640625 30.914062 38.167969 30.914062 L 11.34375 30.914062 C 9.871094 30.914062 8.671875 32.113281 8.671875 33.582031 L 8.671875 84.378906 C 8.671875 85.0625 9.226562 85.609375 9.90625 85.609375 L 84.3125 85.609375 C 86.109375 85.609375 87.570312 84.152344 87.570312 82.355469 L 87.570312 20.195312 C 87.570312 18.515625 86.203125 17.148438 84.519531 17.148438 Z M 43.753906 43.871094 C 43.757812 43.867188 43.765625 43.867188 43.769531 43.863281 C 44.28125 43.582031 44.890625 43.578125 45.402344 43.855469 L 68.242188 56.109375 C 68.644531 56.324219 68.9375 56.683594 69.066406 57.117188 C 69.199219 57.554688 69.148438 58.015625 68.933594 58.421875 C 68.492188 59.246094 67.453125 59.554688 66.625 59.113281 L 64.65625 58.058594 C 64.613281 58.027344 64.5625 58.003906 64.515625 57.980469 L 45.179688 47.601562 C 44.816406 47.40625 44.378906 47.40625 44.015625 47.601562 L 24.640625 58 C 24.613281 58.011719 24.589844 58.023438 24.566406 58.039062 L 22.5625 59.113281 C 21.734375 59.554688 20.699219 59.246094 20.253906 58.417969 C 20.039062 58.015625 19.992188 57.554688 20.125 57.121094 C 20.253906 56.683594 20.550781 56.324219 20.949219 56.109375 L 27.957031 52.347656 C 27.964844 52.34375 27.976562 52.339844 27.984375 52.332031 L 34.195312 49.003906 C 34.21875 48.988281 34.246094 48.976562 34.269531 48.960938 Z M 74.1875 83.148438 L 65.203125 83.148438 C 65.226562 83.003906 65.242188 82.851562 65.242188 82.699219 L 65.242188 70.304688 L 74.039062 70.304688 C 74.117188 70.304688 74.1875 70.375 74.1875 70.453125 Z M 62.777344 82.699219 C 62.777344 82.941406 62.570312 83.148438 62.328125 83.148438 L 51.84375 83.148438 L 51.84375 71.167969 C 51.84375 70.484375 51.292969 69.9375 50.613281 69.9375 L 38.578125 69.9375 C 37.898438 69.9375 37.347656 70.488281 37.347656 71.167969 L 37.347656 83.148438 L 26.867188 83.148438 C 26.625 83.148438 26.417969 82.941406 26.417969 82.699219 L 26.417969 59.839844 L 44.597656 50.085938 L 62.78125 59.84375 L 62.78125 82.699219 Z M 32.417969 47.160156 L 28.617188 49.199219 L 28.617188 42.746094 L 32.417969 42.746094 Z M 11.136719 33.582031 C 11.136719 33.46875 11.230469 33.378906 11.34375 33.378906 L 38.167969 33.378906 C 38.28125 33.378906 38.371094 33.46875 38.371094 33.582031 L 38.371094 43.964844 L 34.882812 45.835938 L 34.882812 42.703125 C 34.882812 41.367188 33.792969 40.28125 32.453125 40.28125 L 28.578125 40.28125 C 27.242188 40.28125 26.15625 41.367188 26.15625 42.703125 L 26.15625 50.519531 L 19.785156 53.9375 C 18.804688 54.464844 18.085938 55.34375 17.765625 56.410156 C 17.445312 57.476562 17.558594 58.605469 18.085938 59.585938 C 19.171875 61.605469 21.703125 62.367188 23.726562 61.285156 L 23.953125 61.160156 L 23.953125 82.695312 C 23.953125 82.851562 23.96875 83 23.992188 83.148438 L 11.136719 83.148438 Z M 39.808594 83.148438 L 39.808594 72.398438 L 49.382812 72.398438 L 49.382812 83.148438 Z M 85.105469 82.359375 C 85.105469 82.792969 84.75 83.148438 84.3125 83.148438 L 76.648438 83.148438 L 76.648438 70.457031 C 76.648438 69.015625 75.480469 67.84375 74.039062 67.84375 L 65.242188 67.84375 L 65.242188 61.167969 L 65.460938 61.285156 L 65.464844 61.285156 C 66.089844 61.621094 66.765625 61.78125 67.429688 61.78125 C 68.296875 61.78125 69.148438 61.507812 69.855469 61.003906 C 70.0625 61.816406 70.800781 62.417969 71.675781 62.417969 L 77.773438 62.417969 C 78.808594 62.417969 79.65625 61.574219 79.65625 60.53125 L 79.65625 54.4375 C 79.65625 53.398438 78.808594 52.550781 77.773438 52.550781 L 71.675781 52.550781 C 70.722656 52.550781 69.933594 53.265625 69.8125 54.183594 C 69.683594 54.09375 69.550781 54.011719 69.410156 53.9375 L 58.09375 47.867188 L 63.480469 47.867188 C 64.519531 47.867188 65.363281 47.023438 65.363281 45.980469 L 65.363281 39.882812 C 65.363281 38.84375 64.519531 38 63.480469 38 L 57.382812 38 C 56.34375 38 55.496094 38.84375 55.496094 39.882812 L 55.496094 45.980469 C 55.496094 46.167969 55.523438 46.34375 55.574219 46.515625 L 50.046875 43.550781 L 50.046875 20.195312 C 50.046875 19.875 50.308594 19.613281 50.628906 19.613281 L 84.519531 19.613281 C 84.84375 19.613281 85.105469 19.875 85.105469 20.195312 Z M 72.253906 59.953125 L 72.253906 55.011719 L 77.191406 55.011719 L 77.191406 59.953125 Z M 57.960938 45.402344 L 57.960938 40.464844 L 62.898438 40.464844 L 62.898438 45.402344 Z M 63.480469 23.449219 L 57.382812 23.449219 C 56.34375 23.449219 55.496094 24.292969 55.496094 25.332031 L 55.496094 31.429688 C 55.496094 32.46875 56.339844 33.3125 57.382812 33.3125 L 63.480469 33.3125 C 64.519531 33.3125 65.363281 32.46875 65.363281 31.429688 L 65.363281 25.332031 C 65.363281 24.292969 64.519531 23.449219 63.480469 23.449219 Z M 62.898438 30.847656 L 57.960938 30.847656 L 57.960938 25.914062 L 62.898438 25.914062 Z M 77.773438 23.449219 L 71.675781 23.449219 C 70.636719 23.449219 69.792969 24.292969 69.792969 25.332031 L 69.792969 31.429688 C 69.792969 32.46875 70.636719 33.3125 71.675781 33.3125 L 77.773438 33.3125 C 78.8125 33.3125 79.65625 32.46875 79.65625 31.429688 L 79.65625 25.332031 C 79.65625 24.292969 78.808594 23.449219 77.773438 23.449219 Z M 77.191406 30.847656 L 72.257812 30.847656 L 72.257812 25.914062 L 77.191406 25.914062 Z M 77.773438 38 L 71.675781 38 C 70.636719 38 69.792969 38.84375 69.792969 39.882812 L 69.792969 45.980469 C 69.792969 47.019531 70.636719 47.867188 71.675781 47.867188 L 77.773438 47.867188 C 78.8125 47.867188 79.65625 47.023438 79.65625 45.980469 L 79.65625 39.882812 C 79.65625 38.84375 78.808594 38 77.773438 38 Z M 77.191406 45.402344 L 72.257812 45.402344 L 72.257812 40.464844 L 77.191406 40.464844 Z M 77.191406 45.402344 "/></g></g></svg>