<svg xmlns="http://www.w3.org/2000/svg" xmlns:xlink="http://www.w3.org/1999/xlink" width="131" zoomAndPan="magnify" viewBox="0 0 98.25 98.249996" height="131" preserveAspectRatio="xMidYMid meet" version="1.2"><defs><clipPath id="c9be7b5dfd"><path d="M 0 0 L 97.503906 0 L 97.503906 97.503906 L 0 97.503906 Z M 0 0 "/></clipPath><clipPath id="a65bdb9179"><path d="M 16.898438 16.898438 L 80.910156 16.898438 L 80.910156 80.910156 L 16.898438 80.910156 Z M 16.898438 16.898438 "/></clipPath></defs><g id="139f74872c"><g clip-rule="nonzero" clip-path="url(#c9be7b5dfd)"><path style=" stroke:none;fill-rule:nonzero;fill:#ffffff;fill-opacity:1;" d="M 0 0 L 97.503906 0 L 97.503906 97.503906 L 0 97.503906 Z M 0 0 "/><path style=" stroke:none;fill-rule:nonzero;fill:#ffffff;fill-opacity:1;" d="M 0 0 L 97.503906 0 L 97.503906 97.503906 L 0 97.503906 Z M 0 0 "/></g><g clip-rule="nonzero" clip-path="url(#a65bdb9179)"><path style=" stroke:none;fill-rule:nonzero;fill:#000000;fill-opacity:1;" d="M 79.179688 44.726562 L 72.015625 37.5625 L 72.015625 18.777344 C 72.015625 17.738281 71.175781 16.898438 70.140625 16.898438 L 62.105469 16.898438 C 61.070312 16.898438 60.230469 17.738281 60.230469 18.777344 L 60.230469 25.777344 L 53.082031 18.632812 C 51.964844 17.515625 50.484375 16.898438 48.90625 16.898438 C 47.328125 16.898438 45.84375 17.515625 44.726562 18.632812 L 18.628906 44.726562 C 16.324219 47.03125 16.324219 50.78125 18.628906 53.085938 C 19.746094 54.199219 21.230469 54.816406 22.808594 54.816406 C 23.136719 54.816406 23.464844 54.785156 23.785156 54.734375 L 23.785156 74.015625 C 23.785156 77.816406 26.878906 80.910156 30.679688 80.910156 L 42.878906 80.910156 C 43.914062 80.910156 44.753906 80.070312 44.753906 79.035156 L 44.753906 64.84375 L 53.054688 64.84375 L 53.054688 79.035156 C 53.054688 80.070312 53.894531 80.910156 54.929688 80.910156 L 67.128906 80.910156 C 70.929688 80.910156 74.023438 77.816406 74.023438 74.015625 L 74.023438 54.734375 C 74.34375 54.785156 74.671875 54.816406 75 54.816406 C 76.578125 54.816406 78.0625 54.199219 79.179688 53.082031 C 80.296875 51.96875 80.910156 50.484375 80.910156 48.90625 C 80.910156 47.328125 80.296875 45.84375 79.179688 44.726562 Z M 63.980469 20.652344 L 68.265625 20.652344 L 68.265625 33.8125 L 63.980469 29.53125 Z M 67.128906 77.160156 L 56.804688 77.160156 L 56.804688 62.964844 C 56.804688 61.929688 55.964844 61.089844 54.929688 61.089844 L 42.878906 61.089844 C 41.84375 61.089844 41.003906 61.929688 41.003906 62.964844 L 41.003906 77.160156 L 30.679688 77.160156 C 28.945312 77.160156 27.535156 75.75 27.535156 74.015625 L 27.535156 52.535156 L 48.90625 31.164062 L 70.273438 52.535156 L 70.273438 74.015625 C 70.273438 75.75 68.863281 77.160156 67.128906 77.160156 Z M 76.527344 50.433594 C 76.121094 50.839844 75.578125 51.0625 75 51.0625 C 74.425781 51.0625 73.882812 50.839844 73.476562 50.433594 L 50.230469 27.1875 C 49.5 26.453125 48.3125 26.453125 47.578125 27.1875 L 24.332031 50.429688 C 24.332031 50.433594 24.332031 50.433594 24.332031 50.433594 C 23.925781 50.839844 23.382812 51.0625 22.808594 51.0625 C 22.230469 51.0625 21.6875 50.839844 21.28125 50.433594 C 20.441406 49.589844 20.441406 48.222656 21.28125 47.378906 L 47.378906 21.28125 C 47.785156 20.875 48.328125 20.652344 48.90625 20.652344 C 49.480469 20.652344 50.023438 20.875 50.429688 21.28125 L 76.527344 47.378906 C 77.367188 48.222656 77.367188 49.589844 76.527344 50.433594 Z M 76.527344 50.433594 "/></g></g></svg>